<?xml version="1.0" standalone="no"?>
<!DOCTYPE svg PUBLIC "-//W3C//DTD SVG 1.1//EN" "http://www.w3.org/Graphics/SVG/1.1/DTD/svg11.dtd" >
<svg xmlns="http://www.w3.org/2000/svg" xmlns:xlink="http://www.w3.org/1999/xlink" version="1.1">
<metadata>
Created by FontForge 20170731 at Wed Nov 28 15:36:22 2018
 By Aleksey,,,
Copyright (c) 2011 by Michael Chereda. All rights reserved.
</metadata>
<defs>
<font id="Casper-Regular" horiz-adv-x="677" >
  <font-face 
    font-family="Casper"
    font-weight="400"
    font-stretch="normal"
    units-per-em="1000"
    panose-1="2 0 5 6 0 0 0 2 0 4"
    ascent="800"
    descent="-200"
    x-height="515"
    cap-height="695"
    bbox="-345 -206 1101 879"
    underline-thickness="50"
    underline-position="-150"
    unicode-range="U+0020-2212"
  />
<missing-glyph horiz-adv-x="250" 
 />
    <glyph glyph-name="f_f" unicode="ff" horiz-adv-x="527" 
d="M329 625q10 25 27.5 43t41 28.5t50.5 10.5q14 0 33.5 -3t36.5 -9v-63h-51q-62 0 -62 -60v-68h108l-21 -67h-87v-437h-86v437h-158v-437h-86v437h-63v67h63v68q0 28 10 53t27.5 43t41 28.5t50.5 10.5q14 0 33.5 -3t36.5 -9v-63h-51q-62 0 -62 -60v-68h158v68q0 28 10 53z
" />
    <glyph glyph-name="fi" unicode="fi" horiz-adv-x="470" 
d="M295.5 703.5q30.5 -3.5 59.5 -12.5t50 -25.5t21 -43.5q0 -15 -14 -31t-34 -16q-21 0 -36 17q-18 19 -40 29t-57 10q-15 0 -30 -4t-27 -11.5t-19.5 -18.5t-7.5 -26v-67h99l-21 -67h-78v-437h-86v437h-63v67h63v67q0 29 12 54t34.5 43t53.5 28.5t70 10.5q20 0 50.5 -3.5z
M335 504h87v-504h-87v504z" />
    <glyph glyph-name="fl" unicode="fl" horiz-adv-x="540" 
d="M426 77.5q21 -15.5 51 -15.5h41v-62l-42 -9q-15 -3 -29 -3q-27 0 -50.5 10.5t-40.5 28.5t-27 42.5t-10 53.5v475q-13 18 -31.5 25.5t-50.5 7.5q-30 0 -53 -15.5t-23 -44.5v-67h99l-21 -67h-78v-437h-86v437h-63v67h63v67q0 58 42.5 97t119.5 39q20 0 49 -4.5t55.5 -16.5
t45 -32t18.5 -51v-481q0 -29 21 -44.5z" />
    <glyph glyph-name="f_f_i" unicode="ffi" horiz-adv-x="698" 
d="M85 625q10 25 27.5 43t41 28.5t50.5 10.5q14 0 33.5 -3t36.5 -9v-63h-51q-62 0 -62 -60v-68h158v67q0 58 40.5 97t118.5 39q20 0 50 -3.5t58 -12.5t48 -25.5t20 -43.5q0 -15 -14 -31t-34 -16q-21 0 -36 17q-18 19 -37.5 29t-54.5 10q-30 0 -51.5 -15.5t-21.5 -44.5v-67
h99l-21 -67h-78v-437h-86v437h-158v-437h-86v437h-63v67h63v68q0 28 10 53zM563 504h87v-504h-87v504z" />
    <glyph glyph-name="f_f_l" unicode="ffl" horiz-adv-x="778" 
d="M85 625q10 25 27.5 43t41 28.5t50.5 10.5q14 0 33.5 -3t36.5 -9v-63h-51q-62 0 -62 -60v-68h158v67q0 29 12.5 54t35.5 43t55 28.5t70 10.5q20 0 49.5 -4.5t56.5 -16.5t46.5 -32t19.5 -51v-481q0 -29 21 -44.5t51 -15.5h41v-62l-42 -9q-15 -3 -29 -3q-27 0 -50.5 10.5
t-40.5 28.5t-27 42.5t-10 53.5v475q-13 18 -33.5 25.5t-52.5 7.5q-15 0 -30.5 -4t-28 -11.5t-20.5 -18.5t-8 -26v-67h99l-21 -67h-78v-437h-86v437h-158v-437h-86v437h-63v67h63v68q0 28 10 53z" />
    <glyph glyph-name=".notdef" horiz-adv-x="250" 
 />
    <glyph glyph-name=".null" horiz-adv-x="0" 
 />
    <glyph glyph-name="nonmarkingreturn" horiz-adv-x="250" 
 />
    <glyph glyph-name="space" unicode=" " horiz-adv-x="300" 
 />
    <glyph glyph-name="space" unicode="&#xa0;" horiz-adv-x="300" 
 />
    <glyph glyph-name="exclam" unicode="!" horiz-adv-x="187" 
d="M130.5 70.5q14.5 -14.5 14.5 -34.5t-14.5 -34t-34.5 -14q-21 0 -35.5 14t-14.5 34t14.5 34.5t35.5 14.5q20 0 34.5 -14.5zM124 156h-56l-26 539h107z" />
    <glyph glyph-name="quotedbl" unicode="&#x22;" horiz-adv-x="357" 
d="M129 447h-56l-26 248h106zM284 447h-55l-26 248h106z" />
    <glyph glyph-name="numbersign" unicode="#" horiz-adv-x="554" 
d="M382 498l40 197h71l-41 -197h81v-70h-95l-35 -170h130v-70h-144l-41 -200h-70l40 200h-147l-41 -200h-70l41 200h-80v70h94l34 170h-128v70h142l41 197h71l-41 -197h148zM367 428h-147l-35 -170h147z" />
    <glyph glyph-name="dollar" unicode="$" horiz-adv-x="468" 
d="M293 298q-32 15 -67 27.5t-71 27.5t-67 40q-27 22 -40 53.5t-13 66.5q0 27 7.5 53t21.5 47q29 44 66 60.5t73 19.5v64h63v-64q48 -5 89.5 -25.5t73.5 -62.5l-53 -54q-29 38 -62 54t-76 16q-35 0 -64 -11t-51 -44q-5 -9 -9 -22t-4 -28t5 -30.5t19 -26.5q29 -26 63 -41
t69 -28t69 -28.5t64 -43.5q26 -24 38.5 -57.5t12.5 -68.5q0 -29 -8 -56.5t-25 -50.5q-32 -44 -69 -64.5t-82 -24.5v-87h-63v89q-61 8 -109.5 44t-78.5 100l63 38q26 -56 67 -83t93 -27q39 0 70.5 16t53.5 51q14 23 14 51q0 20 -6.5 38.5t-19.5 31.5q-25 25 -57 40z" />
    <glyph glyph-name="uni0025" unicode="%" horiz-adv-x="780" 
d="M680 210.5q-3 20.5 -11.5 38.5t-22 30.5t-34.5 12.5q-22 0 -36 -12.5t-22 -30.5t-11 -38.5t-3 -37.5t3 -38t11 -40t22 -31.5t36 -12.5q21 0 34.5 13.5t22 32.5t11.5 40t3 37t-3 36.5zM546.5 4.5q-25.5 16.5 -41.5 43t-22.5 59.5t-6.5 66q0 32 6.5 64.5t22 59t41 43
t64.5 16.5t65 -16.5t42 -42.5t23 -58.5t7 -64.5t-7 -65t-22.5 -60t-41.5 -44t-65 -17t-64.5 16.5zM237.5 561.5q-3.5 20.5 -11.5 38.5t-22 30.5t-35 12.5q-22 0 -36 -12t-22 -30t-11 -38.5t-3 -37.5t3 -38.5t11 -40t22 -31t36 -12.5q21 0 35 13t22 32t11.5 40t3.5 37
t-3.5 36.5zM103.5 356.5q-25.5 16.5 -41.5 42.5t-22.5 59.5t-6.5 66.5q0 32 6.5 64.5t22 58.5t41.5 42.5t65 16.5q38 0 64 -16.5t42 -42.5t23 -58.5t7 -64.5q0 -31 -6.5 -64t-22 -60t-41 -44t-62.5 -17h-4q-39 0 -64.5 16.5zM166 -12l373 719h70l-372 -719h-71z" />
    <glyph glyph-name="ampersand" unicode="&#x26;" horiz-adv-x="628" 
d="M61.5 300q20.5 42 68.5 72q-29 29 -45 65.5t-16 78.5q0 94 57 142.5t151 48.5q58 0 95.5 -17.5t64.5 -51.5l-67 -52q-14 20 -40 29.5t-54 9.5q-56 0 -89.5 -26t-33.5 -83q0 -19 6.5 -38.5t19 -35t30 -25t39.5 -9.5h171q0 26 -3 52.5t-9 49.5l81 39q12 -34 14.5 -70
t2.5 -71h87v-78h-87v-206q0 -30 21.5 -45.5t51.5 -15.5h27v-64l-27 -7q-15 -4 -33 -4q-30 0 -55.5 13.5t-42.5 36.5q-32 -28 -70.5 -39t-88.5 -11q-39 0 -78.5 8t-72.5 26.5t-57.5 48t-33.5 72.5q-3 14 -4 28.5t-1 28.5v4q0 54 20.5 96zM284 330q-33 0 -63 -5.5t-52 -20.5
t-35 -40t-13 -64q0 -34 14 -58.5t37 -40t53.5 -23t62.5 -7.5q46 0 75.5 10.5t55.5 41.5v207h-135z" />
    <glyph glyph-name="quotesingle" unicode="'" horiz-adv-x="170" 
d="M112 447h-56l-26 248h106z" />
    <glyph glyph-name="parenleft" unicode="(" horiz-adv-x="264" 
d="M173 586q-29 -59 -46 -115t-24.5 -110.5t-7.5 -108.5t7.5 -109t24.5 -111t46 -115.5t72 -122.5h-74q-75 112 -116 227t-41 231q0 115 41 228.5t116 227.5h74q-43 -63 -72 -122z" />
    <glyph glyph-name="parenright" unicode=")" horiz-adv-x="264" 
d="M209 480q41 -113 41 -228q0 -116 -41 -231t-116 -227h-74q43 63 72 122.5t46 115.5t24.5 111t7.5 109t-7.5 108t-24.5 110.5t-46 115t-72 121.5h74q75 -114 116 -227z" />
    <glyph glyph-name="asterisk" unicode="*" horiz-adv-x="346" 
d="M200 581l106 45l24 -65l-114 -33l74 -94l-57 -39l-60 99l-60 -99l-57 39l74 94l-114 33l24 65l105 -45l-7 114h70z" />
    <glyph glyph-name="plus" unicode="+" horiz-adv-x="471" 
d="M196 354v187q11 3 20.5 5t18.5 2t18.5 -2t21.5 -5v-187h187q7 -24 7 -39q0 -9 -2 -18.5t-5 -21.5h-187v-187q-12 -3 -21.5 -5t-18.5 -2t-18.5 2t-20.5 5v187h-187q-7 22 -7 40q0 17 7 39h187z" />
    <glyph glyph-name="comma" unicode="," horiz-adv-x="179" 
d="M148.5 40q7.5 -21 7.5 -47q0 -45 -27 -82.5t-67 -54.5l-21 33q24 8 39.5 29.5t15.5 46.5q0 12 -4 23q-20 0 -34 14t-14 34t14 34.5t36 14.5q19 0 34 -13q13 -11 20.5 -32z" />
    <glyph glyph-name="hyphen" unicode="-" horiz-adv-x="396" 
d="M59 257q-2 9 -2 17q0 9 2 18.5t6 22.5h265q4 -13 6 -22t2 -18t-2 -18.5t-6 -21.5h-265q-4 13 -6 22z" />
    <glyph glyph-name="period" unicode="." horiz-adv-x="183" 
d="M129.5 78q15.5 -15 15.5 -38q0 -22 -15.5 -37t-38.5 -15q-22 0 -37.5 15t-15.5 37q0 23 15.5 38t37.5 15q23 0 38.5 -15z" />
    <glyph glyph-name="slash" unicode="/" horiz-adv-x="274" 
d="M1 -12l202 719h70l-201 -719h-71z" />
    <glyph glyph-name="zero" unicode="0" horiz-adv-x="542" 
d="M412.5 278q2.5 38 2.5 68q0 33 -2 68t-8 61q-6 25 -16 49t-26 43t-38.5 31t-51.5 12q-30 0 -53 -12t-40 -31t-28 -44t-16 -50t-6.5 -59.5t-1.5 -67.5q0 -30 1.5 -68.5t6.5 -65.5q4 -24 15 -49t28.5 -45t40.5 -32.5t52 -12.5q27 0 50 12.5t40 33t28 45t15 48.5
q5 28 7.5 66zM354.5 678.5q36.5 -16.5 64 -44.5t45.5 -64.5t26 -76.5q6 -32 8.5 -71t2.5 -76q0 -17 -0.5 -36t-1.5 -39t-3.5 -39.5t-5.5 -35.5q-8 -40 -26.5 -77.5t-46.5 -66.5t-65 -46.5t-82 -17.5q-44 0 -81 18t-65.5 47.5t-47 67t-25.5 76.5q-6 32 -8 74t-2 75q0 36 2 74
t8 69q8 42 26 79t46 65.5t65 45t84 16.5q46 0 82.5 -16.5z" />
    <glyph glyph-name="one" unicode="1" horiz-adv-x="407" 
d="M172 77v493l-105 -97l-51 58l158 151h85v-605h139v-77h-372v77h146z" />
    <glyph glyph-name="two" unicode="2" horiz-adv-x="524" 
d="M135 664q50 31 125 31q36 0 71.5 -8t66.5 -29q37 -26 54 -64.5t17 -81.5q0 -46 -17 -90t-48 -75l-267 -263h342v-84h-438v56q0 46 33 79l271 272q17 17 28.5 46.5t11.5 58.5q0 23 -8 43.5t-27 33.5q-20 14 -44.5 17.5t-48.5 3.5q-42 0 -74.5 -18.5t-51.5 -56.5l-75 38
q29 60 79 91z" />
    <glyph glyph-name="three" unicode="3" horiz-adv-x="494" 
d="M422 682v-60q0 -38 -25 -69l-122 -149q51 -8 94 -32t66 -72q9 -19 13.5 -46.5t4.5 -56.5q0 -28 -4 -53.5t-14 -45.5q-31 -62 -82.5 -86t-112.5 -24q-73 0 -127 33q-55 35 -86 104l77 34q21 -46 53 -66q31 -20 83 -20q34 0 67.5 13t49.5 45q6 12 9 30.5t3 38.5
q0 19 -3 36.5t-8 28.5q-10 20 -27.5 32t-38.5 18t-44 8t-42 2h-42v77l158 197h-276v83h376z" />
    <glyph glyph-name="four" unicode="4" horiz-adv-x="516" 
d="M320 175h-298v84l295 423h87v-427h92l-25 -80h-67v-175h-84v175zM320 539l-198 -284h198v284z" />
    <glyph glyph-name="five" unicode="5" horiz-adv-x="492" 
d="M165.5 92.5q32.5 -19.5 82.5 -19.5q23 0 47 8t41 24q12 11 19 26t10.5 32.5t4.5 35t1 32.5t-1 33t-4.5 35t-10.5 32.5t-19 26.5q-17 15 -41 23t-47 8q-35 0 -64.5 -13t-51.5 -42h-77l25 348h356v-83h-278l-10 -146q45 21 100 21q39 0 76.5 -13t66.5 -39
q21 -18 33.5 -40.5t19 -47t9 -51t2.5 -52.5q0 -52 -12 -102.5t-52 -87.5q-29 -26 -66.5 -39.5t-76.5 -13.5q-75 0 -128 33.5t-84 103.5l77 34q20 -47 52.5 -66.5z" />
    <glyph glyph-name="six" unicode="6" horiz-adv-x="505" 
d="M118 41q-29 24 -44 59t-22.5 74t-8.5 79.5t-1 76.5v27q0 68 10.5 129.5t50.5 121.5q30 45 79.5 66t101.5 21q39 0 78.5 -12t69.5 -38l-55 -66q-19 17 -43.5 24t-49.5 7q-30 0 -61.5 -11.5t-49.5 -38.5q-21 -31 -30 -65t-12 -72q28 20 61.5 30.5t68.5 10.5
q38 0 76.5 -10.5t67.5 -36.5q21 -18 33 -40.5t19 -47t9 -50.5t2 -52q0 -52 -12 -103t-52 -87q-29 -25 -65.5 -37t-74.5 -12q-84 0 -146 53zM217.5 374q-24.5 -7 -43.5 -24q-25 -22 -34 -57.5t-9 -66.5q0 -30 9.5 -64.5t33.5 -56.5q18 -17 42 -24.5t48 -7.5q23 0 45 7.5
t39 21.5q25 23 30 58.5t5 66.5q0 15 -0.5 32.5t-3.5 34.5t-10 32.5t-19 26.5q-17 14 -39 21t-45 7q-24 0 -48.5 -7z" />
    <glyph glyph-name="seven" unicode="7" horiz-adv-x="468" 
d="M462 682v-65q0 -46 -33 -79q-107 -107 -167 -242.5t-60 -291.5v-4h-84v4q0 174 66 319.5t199 275.5h-363v83h442z" />
    <glyph glyph-name="eight" unicode="8" horiz-adv-x="492" 
d="M347 115q17 17 21 38t4 44q0 38 -21 67.5t-56 45.5l-63 28q-21 -8 -41 -21.5t-36 -32.5t-26 -41t-10 -46q0 -23 4 -44t21 -38q20 -20 47 -31t56 -11q58 0 100 42zM158 5q-42 17 -74 49q-30 30 -39.5 65.5t-9.5 77.5q0 32 10.5 58t28.5 47t42 37.5t50 28.5
q-51 23 -76.5 65.5t-25.5 97.5q0 23 5.5 42t14.5 34q24 42 66.5 65t96.5 23t97.5 -23t66.5 -67q8 -15 13 -33t5 -41q0 -53 -26.5 -87t-69.5 -63q56 -25 89.5 -73t33.5 -109q0 -41 -10 -78.5t-39 -66.5q-33 -33 -74.5 -49.5t-86.5 -16.5q-46 0 -88 17zM336 565q-9 15 -23 25
t-31.5 15t-34.5 5t-34.5 -5.5t-31.5 -15.5t-23 -24.5t-9 -33.5q0 -39 18.5 -61.5t48.5 -36.5l48 -21q12 6 26.5 16.5t26.5 25t20 34t8 43.5q0 19 -9 34z" />
    <glyph glyph-name="nine" unicode="9" horiz-adv-x="499" 
d="M49 550.5q13 42.5 39 74.5t64.5 51t91.5 19q38 0 76 -13t67 -38q26 -23 40 -54.5t21 -67.5t8 -73.5t1 -71.5v-32q0 -74 -11.5 -138.5t-38.5 -113.5t-71 -77t-108 -28q-45 0 -88 15t-75 47l61 59q39 -36 98 -36q41 0 69.5 20t46.5 50.5t26 67t8 70.5q-28 -28 -63.5 -38
t-70.5 -10q-52 0 -90.5 18t-64 49.5t-38 72.5t-12.5 88q1 47 14 89.5zM298 326.5q24 11.5 39 32t22 47.5t7 58t-6 58t-20.5 46.5t-38 30.5t-58.5 11t-58.5 -11.5t-37.5 -31t-20.5 -46t-6.5 -57.5q0 -30 5.5 -57t19 -47.5t37 -32.5t58.5 -12q34 0 58 11.5z" />
    <glyph glyph-name="colon" unicode=":" horiz-adv-x="201" 
d="M138.5 489q15.5 -15 15.5 -38q0 -22 -15.5 -37t-38.5 -15q-22 0 -37.5 15t-15.5 37q0 23 15.5 38t37.5 15q23 0 38.5 -15zM138.5 78q15.5 -15 15.5 -38q0 -22 -15.5 -37t-38.5 -15q-22 0 -37.5 15t-15.5 37q0 23 15.5 38t37.5 15q23 0 38.5 -15z" />
    <glyph glyph-name="semicolon" unicode=";" horiz-adv-x="180" 
d="M133.5 40q7.5 -21 7.5 -47q0 -45 -27 -82.5t-67 -54.5l-21 33q24 8 39.5 29.5t15.5 46.5q0 12 -4 23q-20 0 -34 14t-14 34t14 34.5t36 14.5q19 0 34 -13q13 -11 20.5 -32zM117.5 489q15.5 -15 15.5 -38q0 -22 -15.5 -37t-38.5 -15q-22 0 -37.5 15t-15.5 37q0 23 15.5 38
t37.5 15q23 0 38.5 -15z" />
    <glyph glyph-name="less" unicode="&#x3c;" horiz-adv-x="462" 
d="M83 342l349 -137v-85l-432 183v79l432 180v-86z" />
    <glyph glyph-name="equal" unicode="=" horiz-adv-x="586" 
d="M519 276q7 -24 7 -39q0 -9 -2 -18.5t-5 -20.5h-453q-6 22 -6 39q0 9 1.5 18t4.5 21h453zM519 485q3 -12 5 -21.5t2 -18.5t-2 -18.5t-5 -20.5h-453q-6 22 -6 39q0 16 6 40h453z" />
    <glyph glyph-name="greater" unicode="&#x3e;" horiz-adv-x="492" 
d="M492 382v-79l-432 -183v85l349 137l-349 134v86z" />
    <glyph glyph-name="question" unicode="?" horiz-adv-x="423" 
d="M214.5 70.5q14.5 -14.5 14.5 -34.5t-14.5 -34t-35.5 -14q-20 0 -34.5 14t-14.5 34t14.5 34.5t34.5 14.5q21 0 35.5 -14.5zM93.5 692.5q48.5 15.5 94.5 15.5q42 0 79.5 -12t65.5 -35t44 -57t16 -78q0 -27 -6 -47t-15.5 -36.5t-23 -31t-28.5 -29.5l-16 -16
q-15 -15 -31.5 -33.5t-30 -43t-22.5 -57.5t-9 -77h-64q0 63 10 107.5t25.5 76.5t35.5 54t41 42q22 21 37.5 41.5t15.5 49.5q0 27 -10 46.5t-27 32.5t-39.5 19t-47.5 6q-33 0 -67 -12.5t-62 -35.5l-50 63q36 32 84.5 47.5z" />
    <glyph glyph-name="at" unicode="@" horiz-adv-x="963" 
d="M401 224q-25 -6 -43.5 -23t-18.5 -45q0 -32 23 -46t49 -14q17 0 34 9.5t34.5 20.5t37.5 20.5t43 9.5v103zM673 -176q-84 -30 -176 -30q-96 0 -180 35t-146.5 95.5t-99 143t-36.5 178.5t36.5 180t99 146.5t146.5 99t180 36.5q85 0 168 -26.5t146 -84.5q33 -31 55.5 -65.5
t36 -70.5t19.5 -72.5t6 -70.5q0 -57 -17 -110q-13 -40 -34.5 -72.5t-49 -55t-60 -34.5t-67.5 -12t-70 14.5t-70 44.5q-19 0 -34.5 -9t-33 -20.5t-39.5 -20.5t-53 -9q-29 0 -53.5 8t-43.5 23.5t-29.5 38t-10.5 52.5q0 54 35 86.5t92 42.5l170 30v18q0 44 -29 66t-75 22
q-40 0 -65.5 -19.5t-38.5 -54.5l-72 16q19 58 66.5 88t109.5 30q35 0 67 -9.5t56.5 -29t39 -48t14.5 -66.5v-188q36 -28 67 -28q25 0 46 9.5t37.5 26t29.5 38t21 46.5q13 38 13 85q0 27 -4 56t-14.5 57.5t-28 56t-44.5 51.5q-51 47 -120 68t-139 21q-79 0 -148.5 -30
t-121 -82t-81.5 -121t-30 -148t30 -147t81.5 -118t121 -78.5t148.5 -28.5q76 0 145.5 24t123.5 78l57 -58q-66 -64 -150 -94z" />
    <glyph glyph-name="A" unicode="A" 
d="M114 0h-96l259 695h112l272 -695h-94l-81 210h-295zM457 285l-95 244l-28 101l-27 -101l-90 -244h240z" />
    <glyph glyph-name="B" unicode="B" horiz-adv-x="621" 
d="M364.5 410q23.5 7 42 20.5t29.5 34.5t11 50q0 57 -28.5 77.5t-76.5 20.5h-192v-210h167q24 0 47.5 7zM150 82h214q29 0 51.5 5t38.5 18t24 36t8 58q0 60 -34 91t-94 31h-208v-239zM553.5 303.5q30.5 -40.5 30.5 -105.5q0 -53 -18.5 -90.5t-50 -61.5t-73 -35t-88.5 -11
h-294v695h279q43 0 80 -10t64 -32t42.5 -56t15.5 -82q0 -87 -68 -140v-6q50 -25 80.5 -65.5z" />
    <glyph glyph-name="C" unicode="C" horiz-adv-x="622" 
d="M147.5 250.5q6.5 -49.5 29 -90t66 -65.5t118.5 -25q45 0 86.5 16.5t73.5 50.5l63 -59q-44 -47 -102 -68.5t-121 -21.5q-89 0 -149 27.5t-96.5 75.5t-52.5 114t-16 143v37q0 76 19.5 135.5t58.5 101t98 63.5t138 22q61 0 119.5 -20.5t101.5 -64.5l-61 -61
q-31 32 -73.5 47.5t-86.5 15.5q-66 0 -108.5 -21.5t-67.5 -56t-34.5 -77.5t-9.5 -86v-33q0 -50 6.5 -99.5z" />
    <glyph glyph-name="D" unicode="D" horiz-adv-x="688" 
d="M64 0v695h304q74 0 125 -28t83 -76t46.5 -111t14.5 -133q0 -75 -13 -138.5t-44 -110t-82.5 -72.5t-127.5 -26h-306zM358 82q55 0 90.5 20t55.5 55.5t27.5 84t7.5 105.5q0 55 -9 103.5t-30 84.5t-56 57t-87 21h-203v-531h204z" />
    <glyph glyph-name="E" unicode="E" horiz-adv-x="582" 
d="M60 0v695h500l-26 -82h-384v-203h344v-83h-344v-245h407v-82h-497z" />
    <glyph glyph-name="F" unicode="F" horiz-adv-x="531" 
d="M60 695h471l-26 -82h-355v-203h330v-83h-330v-327h-90v695z" />
    <glyph glyph-name="G" unicode="G" horiz-adv-x="647" 
d="M494.5 588.5q-18.5 12.5 -40 20.5t-45 11.5t-45.5 3.5q-54 0 -99 -17.5t-81 -57.5q-39 -42 -48 -89.5t-9 -102.5v-25q0 -55 12 -100.5t50 -88.5q18 -20 42.5 -34t51.5 -22.5t55 -12.5t55 -4t61.5 9.5t59.5 20.5v177h-150v84h236v-312q-48 -26 -102.5 -43.5t-110.5 -17.5
q-36 0 -72.5 5.5t-71.5 18t-66.5 31.5t-55.5 46q-50 55 -67 114.5t-17 131.5v23q0 35 2 67t9.5 62.5t23.5 60.5t44 60q50 54 113.5 76.5t134.5 22.5q63 0 120.5 -21.5t102.5 -74.5l-62 -52q-12 17 -30.5 29.5z" />
    <glyph glyph-name="H" unicode="H" horiz-adv-x="667" 
d="M150 0h-90v695h90v-285h366v285h90v-695h-90v327h-366v-327z" />
    <glyph glyph-name="I" unicode="I" horiz-adv-x="227" 
d="M160 0h-90v695h90v-695z" />
    <glyph glyph-name="J" unicode="J" horiz-adv-x="475" 
d="M135 3.5q-34 15.5 -55.5 42t-31.5 61.5t-10 75h88q0 -24 4 -44.5t14 -35.5t28 -23.5t46 -8.5q62 0 86 32t24 89v504h92v-504q0 -98 -51.5 -150.5t-151.5 -52.5q-48 0 -82 15.5z" />
    <glyph glyph-name="K" unicode="K" horiz-adv-x="575" 
d="M150 391h70l199 304h103l-216 -337l258 -358h-108l-234 325h-72v-325h-90v695h90v-304z" />
    <glyph glyph-name="L" unicode="L" horiz-adv-x="512" 
d="M150 82h343l-25 -82h-408v695h90v-613z" />
    <glyph glyph-name="M" unicode="M" horiz-adv-x="791" 
d="M62 695h141l197 -492l204 492h126v-695h-90v581l-200 -499h-86l-202 511v-593h-90v695z" />
    <glyph glyph-name="N" unicode="N" horiz-adv-x="673" 
d="M60 695h115l347 -558v558h90v-695h-110l-352 569v-569h-90v695z" />
    <glyph glyph-name="O" unicode="O" horiz-adv-x="732" 
d="M217 16q-62 28 -101 76.5t-57.5 114.5t-18.5 141v27q0 71 22.5 132t64.5 105.5t102.5 69.5t136.5 25t136.5 -25t102.5 -69.5t64.5 -105.5t22.5 -132v-27q0 -75 -18.5 -141t-57.5 -114.5t-101 -76.5t-149 -28t-149 28zM267 604q-43 -20 -72.5 -54t-45 -80t-15.5 -97v-23
q0 -57 13.5 -107.5t41.5 -89t71.5 -61t103.5 -22.5q62 0 106.5 21.5t73 59t41.5 88.5t13 111v23q0 51 -15.5 97t-45 80t-73 54t-98.5 20q-56 0 -99 -20z" />
    <glyph glyph-name="P" unicode="P" horiz-adv-x="617" 
d="M60 695h321q50 0 88 -16.5t63 -45t37.5 -68.5t12.5 -86q0 -47 -11.5 -86.5t-36 -68.5t-62.5 -45.5t-91 -16.5h-231v-262h-90v695zM150 345h215q68 0 97.5 37.5t29.5 96.5q0 58 -32.5 96t-94.5 38h-215v-268z" />
    <glyph glyph-name="Q" unicode="Q" horiz-adv-x="722" 
d="M265.5 -35.5q43.5 -6.5 76.5 -16.5t62 -22t65.5 -22t87 -16.5t126.5 -6.5v-75q-75 0 -125 6t-86.5 15.5t-66 21t-63 21.5t-77.5 17.5t-109 9.5v74q66 0 109.5 -6.5zM206 16q-62 28 -101 76.5t-57.5 114.5t-18.5 141v27q0 71 22.5 132t64.5 105.5t102.5 69.5t136.5 25
t136.5 -25t102.5 -69.5t64.5 -105.5t22.5 -132v-27q0 -75 -18.5 -141t-57.5 -114.5t-101 -76.5t-149 -28t-149 28zM256 604q-43 -20 -72.5 -54t-45 -80t-15.5 -97v-23q0 -57 13.5 -107.5t41.5 -89t71.5 -61t103.5 -22.5q62 0 106.5 21.5t73 59t41.5 88.5t13 111v23
q0 51 -15.5 97t-45 80t-73 54t-98.5 20q-56 0 -99 -20z" />
    <glyph glyph-name="R" unicode="R" horiz-adv-x="652" 
d="M264 290q-17 6 -34 6h-80v-296h-90v695h316q44 0 81 -13.5t63.5 -39t41.5 -61.5t15 -81q0 -89 -50.5 -143.5t-141.5 -59.5l161 -202q18 -23 32 -27.5t35 -4.5v-63q-11 -6 -25.5 -9t-24.5 -3q-29 0 -52.5 20t-42.5 43l-176 219q-11 14 -28 20zM360 377q65 0 96 30t31 93
q0 58 -29.5 85.5t-85.5 27.5h-222v-236h210z" />
    <glyph glyph-name="S" unicode="S" horiz-adv-x="595" 
d="M79 606q22 36 57.5 58.5t80.5 32.5t90 10q64 0 122.5 -25.5t100.5 -73.5l-65 -58q-32 38 -75 56t-94 18q-25 0 -51 -6t-47 -19t-34.5 -32t-13.5 -44q0 -47 29.5 -71.5t74.5 -39t96.5 -26.5t96.5 -33.5t74.5 -59.5t29.5 -105q0 -54 -25 -92t-64 -62t-86.5 -35t-91.5 -11
q-85 0 -150 38.5t-104 112.5l78 41q31 -57 74 -83.5t103 -26.5q26 0 56.5 5t57 18t44.5 36t18 59q0 44 -30 67.5t-75 38.5t-97 27.5t-97 34.5t-75 60t-30 103q0 51 22 87z" />
    <glyph glyph-name="T" unicode="T" horiz-adv-x="570" 
d="M331 0h-90v613h-232v82h553l-26 -82h-205v-613z" />
    <glyph glyph-name="U" unicode="U" horiz-adv-x="670" 
d="M158 295q0 -54 6 -95.5t25.5 -70.5t55.5 -44t96 -15q58 0 94 15.5t56 45t26.5 71t6.5 93.5v400h90v-396q0 -72 -13 -129.5t-44.5 -98t-84 -62t-131.5 -21.5q-80 0 -133 21t-84 60.5t-43.5 97.5t-12.5 132v396h90v-400z" />
    <glyph glyph-name="V" unicode="V" horiz-adv-x="664" 
d="M294 214l37 -115l37 115l192 493l87 -24l-263 -683h-104l-263 683l88 24z" />
    <glyph glyph-name="W" unicode="W" horiz-adv-x="963" 
d="M689 142l150 565l88 -24l-181 -683h-109l-139 446l-17 80l-17 -80l-139 -446h-109l-181 683l88 24l150 -565l146 472h124z" />
    <glyph glyph-name="X" unicode="X" horiz-adv-x="682" 
d="M130 0h-110l269 361l-226 322l89 24l137 -191l55 -89l56 89l136 191l89 -24l-226 -322l269 -361h-110l-180 246l-34 54l-34 -54z" />
    <glyph glyph-name="Y" unicode="Y" horiz-adv-x="617" 
d="M375 324q-7 -10 -20 -10v-314h-93v314q-12 0 -20 10l-230 359l89 24l198 -313h20l197 313l89 -24z" />
    <glyph glyph-name="Z" unicode="Z" horiz-adv-x="611" 
d="M574 695v-43q0 -21 -7.5 -39t-20.5 -34l-362 -447l-46 -50h447v-82h-551v46q0 42 28 73l329 412l73 82h-406l25 82h491z" />
    <glyph glyph-name="bracketleft" unicode="[" horiz-adv-x="256" 
d="M140 623v-746h104v-71h-184v889h184v-72h-104z" />
    <glyph glyph-name="backslash" unicode="\" horiz-adv-x="274" 
d="M71 708l202 -720h-71l-201 720h70z" />
    <glyph glyph-name="bracketright" unicode="]" horiz-adv-x="258" 
d="M195 695v-889h-184v71h103v746h-103v72h184z" />
    <glyph glyph-name="asciicircum" unicode="^" horiz-adv-x="433" 
d="M184 708h65l167 -380h-84l-116 290l-112 -290h-87z" />
    <glyph glyph-name="underscore" unicode="_" horiz-adv-x="699" 
d="M635 -132q4 -16 4 -31t-4 -31h-571q-5 20 -5 31t5 31h571z" />
    <glyph glyph-name="grave" unicode="`" horiz-adv-x="181" 
d="M13 847l1 13h77l76 -123h-69z" />
    <glyph glyph-name="a" unicode="a" horiz-adv-x="539" 
d="M254.5 69.5q23.5 7.5 48 19t47 23.5t38.5 21v87h-187q-16 0 -30 -6.5t-24 -17t-16 -25t-6 -29.5q0 -18 7.5 -32.5t20 -25t28 -16.5t32.5 -6q18 0 41.5 7.5zM350.5 504q36.5 -12 64 -35t43.5 -57t16 -79v-218q0 -35 6.5 -60t22.5 -55h-92q-8 11 -12.5 28t-5.5 31
q-41 -30 -90.5 -50.5t-100.5 -20.5q-34 0 -63.5 11t-51.5 31.5t-34.5 49t-12.5 63.5q0 33 13 60.5t35 47.5t51 31t61 11h188v46q0 54 -32.5 78.5t-83.5 25.5q-46 0 -79 -11t-72 -34l-37 64q24 14 45.5 24t44 17t46.5 10t52 3q42 0 78.5 -12z" />
    <glyph glyph-name="b" unicode="b" horiz-adv-x="526" 
d="M145 81q22 -10 48 -14.5t52 -4.5q22 0 42.5 3t38.5 11q22 9 37 25.5t23 37.5t11.5 44.5t3.5 45.5v34q0 33 -3.5 59t-12.5 46q-12 27 -37.5 45.5t-57.5 18.5q-30 0 -54.5 -9t-42.5 -24.5t-30 -36t-18 -43.5v-238zM152 438q31 38 66 53t72 15q48 0 93.5 -26t72.5 -74
q19 -33 25 -69.5t6 -79.5v-23q0 -127 -60 -186.5t-183 -59.5q-51 0 -98 9.5t-87 26.5v659l86 24l1 -269h6z" />
    <glyph glyph-name="c" unicode="c" horiz-adv-x="494" 
d="M379 500q44 -16 76 -48l-53 -52q-22 19 -48.5 30.5t-67.5 11.5q-34 0 -63 -11.5t-50 -34.5q-22 -24 -33 -58t-11 -69v-16q0 -44 12 -84.5t40 -67.5q19 -18 44.5 -28.5t60.5 -10.5q30 0 63.5 10t53.5 34l53 -51q-33 -35 -77.5 -51t-92.5 -16q-40 0 -83.5 12t-75.5 38
q-27 22 -44.5 50.5t-25.5 66.5q-5 24 -6.5 48t-1.5 48v19q0 24 1.5 46t7 42.5t16 41t29.5 42.5q16 19 38 33t47 23t51.5 13.5t50.5 4.5q45 0 89 -16z" />
    <glyph glyph-name="d" unicode="d" horiz-adv-x="534" 
d="M343 436q-28 6 -57 6q-75 0 -116 -46.5t-41 -127.5v-60q0 -29 6 -55t20 -46.5t35.5 -32.5t53.5 -12q29 0 68 18.5t78 61.5v277q-19 11 -47 17zM476 707v-592q0 -37 7 -61.5t22 -53.5h-92q-7 10 -12 27.5t-6 31.5q-20 -20 -44 -36q-20 -14 -48 -24.5t-59 -10.5
q-54 0 -92 18t-62.5 48.5t-35.5 71.5t-11 87v48q0 128 63 191.5t188 63.5q47 0 96 -19v186z" />
    <glyph glyph-name="e" unicode="e" horiz-adv-x="547" 
d="M173.5 102q40.5 -40 122.5 -40q40 0 68 16.5t50 45.5l76 -31q-29 -49 -81 -77t-118 -28q-67 0 -113.5 18.5t-75.5 52t-42 81t-13 105.5v11q0 25 1 48.5t6 46.5t16 45.5t31 44.5q34 38 81 56.5t97 18.5q56 0 99.5 -18t73 -50t44.5 -76t15 -97v-45h-378q0 -88 40.5 -128z
M425 300v9q0 25 -10 49t-29 42.5t-46 30t-61 11.5q-32 0 -59 -11t-46.5 -29.5t-30 -42.5t-10.5 -50v-9h292z" />
    <glyph glyph-name="f" unicode="f" horiz-adv-x="296" 
d="M91 625q10 25 27.5 43t41 28.5t50.5 10.5q14 0 33.5 -3t36.5 -9v-63h-51q-62 0 -62 -60v-68h108l-21 -67h-87v-437h-86v437h-63v67h63v68q0 28 10 53z" />
    <glyph glyph-name="g" unicode="g" horiz-adv-x="533" 
d="M312 92.5q37 18.5 76 61.5v273q-21 7 -45.5 11t-49.5 4q-87 0 -124 -41t-37 -122v-67q0 -75 30 -106.5t84 -31.5q29 0 66 18.5zM369 49q-13 -11 -31.5 -22t-41.5 -19t-50 -8q-43 0 -79.5 12t-63.5 38t-42 67.5t-15 100.5v52q0 127 61 186.5t184 59.5q50 0 96.5 -9.5
t86.5 -26.5v-462q0 -48 -16 -89t-45 -71t-70 -47t-92 -17q-56 0 -99 13t-91 41l41 71q38 -23 72 -33.5t79 -10.5q65 0 100 39.5t35 101.5v50q-6 -6 -19 -17z" />
    <glyph glyph-name="h" unicode="h" horiz-adv-x="517" 
d="M365 490q34 -14 58.5 -40t36.5 -60.5t12 -74.5v-315h-86v312q0 54 -26 86t-74 32q-61 0 -94.5 -30.5t-45.5 -76.5v-323h-86v683l86 24v-265q31 35 70.5 49t72.5 13q42 0 76 -14z" />
    <glyph glyph-name="i" unicode="i" horiz-adv-x="204" 
d="M141 693.5q14 -13.5 14 -33.5t-14 -33.5t-34 -13.5t-34 13.5t-14 33.5t14 33.5t34 13.5t34 -13.5zM65 504h86v-504h-86v504z" />
    <glyph glyph-name="j" unicode="j" horiz-adv-x="208" 
d="M149 504v-575q0 -29 -10 -53.5t-28 -42.5t-41.5 -28.5t-50.5 -10.5q-14 0 -35 3t-38 9v63h55q62 0 62 60v575h86zM139 693.5q14 -13.5 14 -33.5t-14 -33.5t-34 -13.5t-34 13.5t-14 33.5t14 33.5t34 13.5t34 -13.5z" />
    <glyph glyph-name="k" unicode="k" horiz-adv-x="459" 
d="M146 288h52l154 216h88l-170 -245l124 -171q10 -14 27 -20t36 -6v-62q-24 -12 -42 -12q-25 0 -46 19t-39 44l-133 180h-51v-231h-86v683l86 24v-419z" />
    <glyph glyph-name="l" unicode="l" horiz-adv-x="255" 
d="M141 707v-585q0 -60 62 -60h51v-62q-17 -6 -36.5 -9t-33.5 -3q-27 0 -50.5 10.5t-41 28.5t-27.5 42.5t-10 53.5v560z" />
    <glyph glyph-name="m" unicode="m" horiz-adv-x="817" 
d="M185.5 479.5q14.5 10.5 30.5 18.5t32.5 13t32.5 5q43 0 80.5 -14t66.5 -55q40 36 74.5 52.5t79.5 16.5q85 0 131.5 -49.5t46.5 -129.5v-337h-86v338q0 104 -98 104q-20 0 -37.5 -5t-32.5 -12.5t-26.5 -16.5t-18.5 -16v-392h-86v360q0 38 -25.5 60t-70.5 22t-74.5 -17.5
t-43.5 -32.5v-392h-86v380q0 53 -23 99l79 37q8 -14 14 -28t10 -31h6q10 12 24.5 22.5z" />
    <glyph glyph-name="n" unicode="n" horiz-adv-x="535" 
d="M204.5 424.5q-34.5 -17.5 -48.5 -32.5v-392h-86v380q0 53 -23 99l79 37q8 -14 14 -28t10 -31h6q21 26 58.5 42.5t71.5 16.5q46 0 82.5 -14.5t61.5 -40t38 -60t13 -74.5v-327h-86v328q0 52 -31.5 83t-79.5 31q-45 0 -79.5 -17.5z" />
    <glyph glyph-name="o" unicode="o" horiz-adv-x="568" 
d="M442 272q0 73 -38 119q-20 24 -50 37.5t-69 13.5q-38 0 -67 -12.5t-49 -35.5q-40 -46 -40 -123v-23q0 -42 9 -78t31 -62q18 -22 46.5 -34t69.5 -12q38 0 65 11t46 31q26 26 36 65t10 83v20zM379 5.5q-44 -17.5 -95 -17.5q-49 0 -94 18t-80 54q-38 38 -49.5 88t-11.5 104
v19q1 52 13 93t51 82q35 36 78 53t93 17t92.5 -16.5t77.5 -51.5q36 -37 52 -80t16 -95v-21q0 -54 -12 -102t-52 -90q-35 -37 -79 -54.5z" />
    <glyph glyph-name="p" unicode="p" horiz-adv-x="544" 
d="M402.5 490q45.5 -26 73.5 -74q18 -31 23.5 -67t5.5 -77v-64q0 -47 -13 -87.5t-38.5 -70t-63 -46t-86.5 -16.5q-27 0 -51 8.5t-43.5 19.5t-33 22t-19.5 17v-249h-86v574q0 53 -23 99l79 37q8 -14 14 -28t10 -31h6q23 25 59 42t78 17q63 0 108.5 -26zM210.5 423.5
q-33.5 -18.5 -53.5 -41.5v-241q39 -43 78.5 -61t68.5 -18q33 0 55 11.5t35.5 31.5t19 46.5t5.5 57.5v63q0 30 -4.5 57.5t-12.5 43.5q-14 31 -46 50t-64 19q-48 0 -81.5 -18.5z" />
    <glyph glyph-name="q" unicode="q" horiz-adv-x="544" 
d="M318.5 80.5q39.5 18.5 78.5 61.5v283q-19 8 -47 12.5t-57 4.5q-23 0 -44.5 -3t-38.5 -10q-22 -8 -36.5 -24.5t-23 -37t-12 -44t-3.5 -45.5v-67q0 -31 5.5 -58t19 -47.5t35.5 -32t55 -11.5q29 0 68.5 18.5zM157.5 6q-38.5 18 -62.5 49t-35 73t-11 90v52q0 127 63.5 186.5
t187.5 59.5q50 0 96 -9.5t87 -26.5v-674h-86v249q-6 -6 -19.5 -17t-32.5 -22t-42.5 -19.5t-50.5 -8.5q-56 0 -94.5 18z" />
    <glyph glyph-name="r" unicode="r" horiz-adv-x="352" 
d="M198.5 499.5q25.5 16.5 61.5 16.5q39 0 83 -22l-30 -80q-31 16 -57 16t-45.5 -13.5t-32 -36.5t-18.5 -54.5t-6 -67.5v-258h-86v380q0 53 -23 99l79 37q8 -14 14.5 -29.5t9.5 -33.5h6q19 30 44.5 46.5z" />
    <glyph glyph-name="s" unicode="s" horiz-adv-x="480" 
d="M345 497q45 -19 77 -54l-52 -51q-17 18 -45 34t-75 16q-16 0 -34.5 -2.5t-35 -10t-27.5 -21.5t-11 -36q0 -25 22.5 -38.5t56.5 -24t73 -20t73 -25t56.5 -41t22.5 -67.5q0 -78 -51 -123t-150 -45q-75 0 -126 25.5t-82 80.5l62 39q13 -15 27 -28t31 -22.5t39.5 -15
t53.5 -5.5q16 0 35.5 3t36 12t27.5 25t11 41q0 30 -22.5 45t-56 24.5t-72.5 17.5t-72.5 24t-56 44.5t-22.5 78.5q0 39 19 65.5t47.5 43t62.5 23.5t65 7q48 0 93 -19z" />
    <glyph glyph-name="t" unicode="t" horiz-adv-x="289" 
d="M27 437v67h57v108l86 24v-132h92l-21 -67h-71v-315q0 -60 62 -60h37v-63q-17 -6 -29.5 -8.5t-26.5 -2.5q-27 0 -51.5 8.5t-42.5 25.5t-26.5 42.5t-8.5 57.5v315h-57z" />
    <glyph glyph-name="u" unicode="u" horiz-adv-x="544" 
d="M103.5 34q-42.5 46 -42.5 138v328l86 16v-344q0 -59 23 -84.5t72 -25.5q29 0 66.5 18.5t76.5 61.5v358l86 16v-401q0 -37 7 -61.5t22 -53.5h-92q-7 10 -12 27.5t-6 31.5q-19 -20 -43 -36q-20 -14 -47 -24.5t-58 -10.5q-96 0 -138.5 46z" />
    <glyph glyph-name="v" unicode="v" horiz-adv-x="484" 
d="M17 492l77 24l116 -307l32 -109l32 109l116 307l77 -24l-185 -492h-80z" />
    <glyph glyph-name="w" unicode="w" horiz-adv-x="704" 
d="M490 126l119 390l77 -24l-149 -492h-85l-103 286l-103 -286h-85l-149 492l77 24l119 -390l108 309h66z" />
    <glyph glyph-name="x" unicode="x" horiz-adv-x="463" 
d="M105 0h-98l182 266l-155 226l81 24l120 -185l120 185l81 -24l-155 -226l182 -266h-98l-130 195z" />
    <glyph glyph-name="y" unicode="y" horiz-adv-x="510" 
d="M239.5 -178.5q-28.5 -27.5 -70.5 -27.5q-14 0 -29.5 2.5t-38.5 9.5v63h42q23 0 39 6.5t24 29.5l34 98q-29 7 -49.5 27t-31.5 48l-158 414l83 24l156 -408q4 -10 9.5 -16t16.5 -6h4l155 430l83 -24l-223 -599q-17 -44 -45.5 -71.5z" />
    <glyph glyph-name="z" unicode="z" horiz-adv-x="500" 
d="M463 515v-16q0 -46 -32 -78l-294 -353l108 5h224l-17 -73h-419v29q0 22 8.5 41t22.5 36l291 345l-99 -6h-187v70h394z" />
    <glyph glyph-name="braceleft" unicode="{" horiz-adv-x="307" 
d="M233 633q-23 0 -39 -16t-16 -39v-230q0 -17 -6 -31t-15 -25.5t-20 -20.5t-21 -15q10 -6 21 -15t20 -20.5t15 -26t6 -31.5v-240q0 -23 16 -38.5t39 -15.5h46v-75h-46q-27 0 -50.5 10t-41.5 27.5t-28 41t-10 50.5v211q0 27 -8 43.5t-22 25.5t-32.5 12t-38.5 3v75
q20 0 38.5 3t32.5 12t22 25.5t8 43.5v201q0 27 10 50.5t28 41.5t41.5 28t50.5 10h46v-75h-46z" />
    <glyph glyph-name="bar" unicode="|" horiz-adv-x="204" 
d="M98 -200q-16 0 -38 6v889q22 6 38 6q15 0 38 -6v-889q-23 -6 -38 -6z" />
    <glyph glyph-name="braceright" unicode="}" horiz-adv-x="306" 
d="M73 708q27 0 50.5 -10t41.5 -28t28 -41.5t10 -50.5v-201q0 -27 8 -43.5t22 -25.5t32.5 -12t38.5 -3v-75q-20 0 -38.5 -3t-32.5 -12t-22 -25.5t-8 -43.5v-211q0 -27 -10 -50.5t-28 -41t-41.5 -27.5t-50.5 -10h-46v75h46q23 0 39 15.5t16 38.5v240q0 17 6 31.5t15 26
t20 20.5t21 15q-10 6 -21 15t-20 20.5t-15 25.5t-6 31v230q0 23 -16 39t-39 16h-46v75h46z" />
    <glyph glyph-name="asciitilde" unicode="~" horiz-adv-x="549" 
d="M425.5 261q-39.5 -21 -82.5 -21q-29 0 -57 10t-56.5 22t-56.5 22t-55 10q-22 0 -45.5 -11t-44.5 -28v50q36 29 70.5 45.5t72.5 16.5q28 0 56 -9t56 -20.5t56 -20.5t55 -9t57 14.5t56 40.5v-51v0q-42 -40 -81.5 -61z" />
    <glyph glyph-name="exclamdown" unicode="&#xa1;" horiz-adv-x="169" 
d="M48.5 430.5q-14.5 14.5 -14.5 34.5t14.5 34t35.5 14q20 0 34.5 -14t14.5 -34t-14.5 -34.5t-34.5 -14.5q-21 0 -35.5 14.5zM61 345h56l25 -539h-107z" />
    <glyph glyph-name="cent" unicode="&#xa2;" horiz-adv-x="407" 
d="M293.5 417.5q-23.5 8.5 -50.5 8.5h-9.5t-9.5 -1q-27 -3 -51 -14t-43 -31q-18 -19 -24.5 -48t-6.5 -64v-15q0 -20 0.5 -40t4.5 -38q12 -67 78 -90q26 -10 57 -10q29 0 53 7.5t44 29.5l57 -52q-52 -55 -127 -63v-88h-63v89q-12 2 -23.5 4.5t-22.5 6.5q-18 6 -33 14.5
t-29 19.5q-53 43 -67 115q-9 46 -9 93v18q0 24 1.5 45t7 40.5t16 39t28.5 40.5q26 29 59.5 45.5t71.5 21.5v67h63v-65q35 -4 67.5 -18.5t58.5 -41.5l-55 -54q-20 20 -43.5 28.5z" />
    <glyph glyph-name="sterling" unicode="&#xa3;" horiz-adv-x="565" 
d="M132 353q-8 25 -15 43t-10 26q-5 17 -9 36.5t-4 42.5v6q1 44 18 79t44.5 59t65 37t79.5 13q63 0 114 -24t85 -68l-60 -55q-20 30 -53.5 49t-83.5 19q-56 0 -92 -27.5t-38 -86.5v-4q0 -20 4 -39t9 -37q4 -10 8 -21q7 -20 17 -48h144v-62h-129q1 -5 1.5 -9.5t0.5 -9.5
l1 -12q0 -21 -5.5 -43.5t-14.5 -44.5t-20.5 -41.5t-24.5 -34.5q14 2 28.5 3t29.5 1q27 0 52 -6t49 -13.5t48 -13.5t50 -6q21 0 42 8.5t38 18.5l34 -66q-29 -14 -55 -24t-59 -10q-28 0 -53.5 6t-49.5 13t-48 13t-48 6q-26 0 -44.5 -1.5t-35 -6t-33.5 -11.5t-39 -19
q-9 20 -18.5 38.5t-19.5 38.5q18 15 35.5 32.5t33.5 37.5t27.5 41.5t17.5 44.5q4 15 4 34q0 18 -3 36h-105v62h90z" />
    <glyph glyph-name="currency" unicode="&#xa4;" horiz-adv-x="558" 
d="M338 572.5q28 -8.5 51 -24.5l65 65l56 -54l-66 -65q16 -24 25 -52t9 -59q0 -60 -33 -110l65 -64l-54 -56l-66 65q-23 -16 -51 -25t-60 -9q-30 0 -58 8.5t-51 24.5l-65 -65l-56 54l66 66q-34 48 -34 111q0 30 8.5 58t24.5 51l-65 65l54 56l65 -66q49 34 111 34
q31 0 59 -8.5zM232 494.5q-22 -9.5 -38.5 -26t-26 -38.5t-9.5 -47t9.5 -47.5t26 -39t38.5 -26t47 -9.5t47.5 9.5t39 26t26 39t9.5 47.5t-9.5 47t-26 38.5t-39 26t-47.5 9.5t-47 -9.5z" />
    <glyph glyph-name="yen" unicode="&#xa5;" horiz-adv-x="627" 
d="M412 362h138v-66h-190v-73h190v-66h-190v-157h-93v157h-190v66h190v73h-190v66h138l-198 309l89 24l198 -313h20l197 313l89 -24z" />
    <glyph glyph-name="brokenbar" unicode="&#xa6;" horiz-adv-x="202" 
d="M135 167h-75v-361q22 -6 37 -6t38 6v361zM135 333h-75v362q22 6 37 6t38 -6v-362z" />
    <glyph glyph-name="section" unicode="&#xa7;" horiz-adv-x="497" 
d="M288.5 -124.5q16.5 3.5 29.5 12t21 21.5t8 31q0 20 -12 39.5t-31.5 37.5t-44 35t-50.5 33l-11 7q-32 20 -62 40t-53 42.5t-37 47.5t-14 55t11.5 51.5t30 37t40.5 27.5t43 24q-38 30 -62 63.5t-24 79.5q0 36 14.5 64t38.5 46.5t55.5 28t65.5 9.5q131 0 203 -94l-60 -50
q-26 32 -58.5 52.5t-82.5 20.5q-17 0 -34 -4.5t-31 -13.5t-22.5 -23.5t-8.5 -33.5t11 -36.5t29.5 -34t42.5 -32.5t49 -31l18 -11q32 -20 62 -39.5t53 -42t37 -47.5t14 -55t-12.5 -53t-31.5 -40.5t-40.5 -29t-40.5 -17.5q37 -30 61.5 -67t24.5 -84q0 -37 -14.5 -65t-38 -46.5
t-54.5 -27.5t-64 -9q-65 0 -117.5 25.5t-96.5 74.5l62 55q33 -38 67 -57.5t84 -19.5q16 0 32.5 3.5zM315 144q16 9 32 21.5t27.5 28.5t11.5 36q0 13 -10 27t-26.5 28t-37.5 28t-44 29l-11 7q-12 8 -24.5 15t-22.5 15q-14 -8 -31 -16t-31.5 -19.5t-24.5 -26.5t-10 -37
q0 -14 11 -28.5t29 -29.5t41 -30t48 -31l47 -30q10 4 26 13z" />
    <glyph glyph-name="dieresis" unicode="&#xa8;" horiz-adv-x="377" 
d="M311 846.5q14 -13.5 14 -33.5t-14 -33.5t-34 -13.5t-34 13.5t-14 33.5t14 33.5t34 13.5t34 -13.5zM133 846.5q14 -13.5 14 -33.5t-14 -33.5t-34 -13.5t-34 13.5t-14 33.5t14 33.5t34 13.5t34 -13.5z" />
    <glyph glyph-name="copyright" unicode="&#xa9;" horiz-adv-x="794" 
d="M538.5 680q65.5 -28 114.5 -76.5t77 -114t28 -140.5t-28 -140.5t-77 -114.5t-114.5 -77.5t-140.5 -28.5t-141 28.5t-115 77.5t-77.5 114.5t-28.5 140.5t28.5 140.5t77.5 114t115 76.5t141 28t140.5 -28zM281 624q-55 -23 -96 -63.5t-64.5 -95t-23.5 -116.5t23.5 -116.5
t64.5 -95.5t96 -64.5t117 -23.5t116.5 23.5t95 64.5t63.5 95.5t23 116.5t-23 116.5t-63.5 95t-95 63.5t-116.5 23t-117 -23zM453 491.5q-21 7.5 -44 7.5h-8.5t-8.5 -1q-57 -5 -84 -41.5t-27 -95.5v-13q0 -24 2.5 -46.5t10 -42t22.5 -34.5t39 -24t50 -9t47 6.5t39 26.5
l49 -47q-28 -29 -61.5 -42.5t-73.5 -13.5q-38 0 -72 12q-35 12 -58 33.5t-37 50t-20 61.5t-6 67v16q0 38 11 73t32.5 63t54 46t75.5 23q5 1 10 1h10q38 0 72.5 -13t61.5 -41l-48 -48q-17 18 -38 25.5z" />
    <glyph glyph-name="ordfeminine" unicode="&#xaa;" horiz-adv-x="385" 
d="M180 408q16 5 32.5 12.5t31.5 15.5t26 14v59h-127q-20 0 -35.5 -15.5t-15.5 -37.5q0 -23 19 -38t40 -15q13 0 29 5zM288 676q39 -31 39 -91v-147q0 -23 4.5 -39.5t15.5 -38.5h-61q-6 8 -9 20t-3 21q-28 -20 -61.5 -34.5t-67.5 -14.5q-46 0 -77 29t-31 75q0 22 8.5 41
t23 32.5t34 21t40.5 7.5h127v31q0 37 -22 53t-56 16q-31 0 -53.5 -7.5t-48.5 -23.5l-24 43q32 20 60 28.5t66 8.5q57 0 96 -31z" />
    <glyph glyph-name="guillemotleft" unicode="&#xab;" horiz-adv-x="469" 
d="M362.5 358q-29.5 -55 -62.5 -99q33 -45 62.5 -100t55.5 -118h-60q-29 58 -69.5 112t-86.5 106q46 51 86.5 105t69.5 112h60q-26 -63 -55.5 -118zM175.5 358q-29.5 -55 -62.5 -99q33 -45 62.5 -100t55.5 -118h-60q-29 58 -69.5 112t-86.5 106q46 51 86.5 105t69.5 112h60
q-26 -63 -55.5 -118z" />
    <glyph glyph-name="logicalnot" unicode="&#xac;" horiz-adv-x="523" 
d="M462 504v-290h-81v209h-381v81h462z" />
    <glyph glyph-name="uni00AD" unicode="&#xad;" horiz-adv-x="395" 
d="M58 272q0 10 2 20t6 23h263q4 -13 6 -23t2 -20q0 -17 -8 -43h-263q-8 26 -8 43z" />
    <glyph glyph-name="registered" unicode="&#xae;" horiz-adv-x="517" 
d="M344.5 690.5q40.5 -17.5 71 -47.5t48 -70.5t17.5 -86.5t-17.5 -86.5t-48 -70.5t-71 -47.5t-86.5 -17.5t-86.5 17.5t-70.5 47.5t-47.5 70.5t-17.5 86.5t17.5 86.5t47.5 70.5t70.5 47.5t86.5 17.5t86.5 -17.5zM189 649q-32 -14 -56 -38t-38 -56t-14 -69q0 -36 14 -68.5
t38 -56.5t56 -38t69 -14t69 14t56 38t38 56.5t14 68.5q0 37 -14 69t-38 56t-56 38t-69 14t-69 -14zM238.5 458.5q-6.5 2.5 -12.5 2.5h-20v-102h-42v254h108q35 0 58.5 -19t23.5 -53t-15.5 -55t-50.5 -23l45 -65q8 -11 13.5 -13.5t13.5 -2.5v-23q-7 -4 -17 -4q-14 0 -26 7
t-19 16l-49 73q-4 5 -10.5 7.5zM275 501q23 0 33 8.5t10 31.5q0 19 -11.5 26t-31.5 7h-69v-73h69z" />
    <glyph glyph-name="degree" unicode="&#xb0;" horiz-adv-x="330" 
d="M107 637.5q-24 -23.5 -24 -58.5q0 -34 24 -57.5t58 -23.5t58 23.5t24 57.5q0 35 -24 58.5t-58 23.5t-58 -23.5zM215.5 698q23.5 -10 41 -27.5t27.5 -41t10 -50.5t-10 -50t-27.5 -40.5t-41 -27.5t-50.5 -10t-50.5 10t-41 27.5t-27.5 40.5t-10 50t10 50.5t27.5 41t41 27.5
t50.5 10t50.5 -10z" />
    <glyph glyph-name="plusminus" unicode="&#xb1;" horiz-adv-x="493" 
d="M473 78q7 -24 7 -39q0 -9 -2 -18.5t-5 -20.5h-453q-7 21 -7 39q0 17 7 39h453zM207 388v187q11 3 20.5 5t18.5 2t18.5 -2t21.5 -5v-187h187q7 -24 7 -39q0 -9 -2 -18.5t-5 -21.5h-187v-187q-12 -3 -21.5 -5t-18.5 -2t-18.5 2t-20.5 5v187h-187q-7 22 -7 40q0 17 7 39h187
z" />
    <glyph glyph-name="uni00B2" unicode="&#xb2;" horiz-adv-x="305" 
d="M150 702q20 0 38.5 -4t35.5 -15q20 -14 30 -36t10 -45q0 -21 -8 -41.5t-22 -34.5l-133 -133h164v-46h-223v28q0 24 17 41l138 139q8 9 14.5 23t6.5 29q0 27 -20.5 38t-47.5 11q-41 0 -59 -37l-42 20q32 63 101 63z" />
    <glyph glyph-name="uni00B3" unicode="&#xb3;" horiz-adv-x="291" 
d="M233 695v-39q0 -11 -3.5 -19.5t-9.5 -16.5l-58 -67q87 -15 87 -106q0 -51 -28.5 -79t-80.5 -28q-79 0 -110 69l42 19q14 -25 29.5 -33.5t38.5 -8.5q28 0 45.5 16.5t17.5 45.5q0 34 -19.5 51t-48.5 17h-34v35l83 98h-143v46h192z" />
    <glyph glyph-name="acute" unicode="&#xb4;" horiz-adv-x="182" 
d="M91 860h77l1 -11l-85 -112h-69z" />
    <glyph glyph-name="uni00B5" unicode="&#xb5;" horiz-adv-x="510" 
d="M190 -6.5q-24 5.5 -44 15.5v-203h-86v686l86 24v-356q0 -54 24.5 -76t71.5 -22q15 0 29.5 3t31.5 10.5t37 21.5t44 35v360l86 24v-401q0 -37 7 -61.5t22 -53.5h-92q-7 10 -12 27.5t-6 31.5q-19 -20 -42 -36q-20 -14 -46 -24.5t-58 -10.5q-29 0 -53 5.5z" />
    <glyph glyph-name="paragraph" unicode="&#xb6;" horiz-adv-x="574" 
d="M470 629v-823h-74v823h-96v-823h-70v494h-11q-107 0 -155 55t-48 149t50 142.5t153 48.5h319v-66h-68z" />
    <glyph glyph-name="periodcentered" unicode="&#xb7;" horiz-adv-x="171" 
d="M119 393.5q14 -13.5 14 -33.5t-14 -33.5t-34 -13.5t-34 13.5t-14 33.5t14 33.5t34 13.5t34 -13.5z" />
    <glyph glyph-name="cedilla" unicode="&#xb8;" horiz-adv-x="215" 
d="M129 -64q23 -5 40 -22t17 -42q0 -20 -8.5 -34.5t-22.5 -24t-31 -14.5t-33 -5q-19 0 -40.5 3t-39.5 10l8 42q14 -5 30 -7t30 -2q18 0 33.5 9t15.5 26q0 14 -14 27t-37 15l26 92l47 -3z" />
    <glyph glyph-name="uni00B9" unicode="&#xb9;" horiz-adv-x="220" 
d="M94 393v234l-43 -41l-33 33l80 76h47v-302h49v-46h-152v46h52z" />
    <glyph glyph-name="ordmasculine" unicode="&#xba;" horiz-adv-x="404" 
d="M152.5 647.5q-19.5 -10.5 -30.5 -25.5q-12 -16 -17 -41.5t-5 -53.5t5 -54t17 -43q11 -14 30.5 -25t51.5 -11q29 0 47.5 10.5t29.5 24.5q14 20 18.5 47.5t4.5 50.5t-4.5 50t-18.5 46q-11 14 -29.5 24.5t-48.5 10.5q-31 0 -50.5 -10.5zM278.5 692.5q30.5 -14.5 50.5 -40.5
q20 -27 27 -59.5t7 -65.5t-7 -65.5t-27 -60.5q-19 -26 -49.5 -40.5t-75.5 -14.5q-48 0 -79 15t-50 41q-19 25 -26.5 57t-7.5 68t7.5 67.5t26.5 56.5q19 26 50 41t78 15q45 0 75.5 -14.5z" />
    <glyph glyph-name="guillemotright" unicode="&#xbb;" horiz-adv-x="469" 
d="M180.5 364q40.5 -54 86.5 -105q-46 -52 -86.5 -106t-69.5 -112h-60q26 63 55.5 118t62.5 100q-33 44 -62.5 99t-55.5 118h60q29 -58 69.5 -112zM367.5 364q40.5 -54 86.5 -105q-46 -52 -86.5 -106t-69.5 -112h-60q26 63 55.5 118t62.5 100q-33 44 -62.5 99t-55.5 118h60
q29 -58 69.5 -112z" />
    <glyph glyph-name="onequarter" unicode="&#xbc;" horiz-adv-x="654" 
d="M60 -12l507 719h68l-505 -719h-70zM115 393v234l-43 -41l-33 33l80 76h47v-302h49v-46h-152v46h52zM518 85h-155v45l153 218h51v-217h45l-15 -46h-30v-85h-49v85zM518 267l-97 -136h97v136z" />
    <glyph glyph-name="onehalf" unicode="&#xbd;" horiz-adv-x="660" 
d="M115 393v234l-43 -41l-33 33l80 76h47v-302h49v-46h-152v46h52zM510 357q20 0 38.5 -4t35.5 -15q20 -14 30 -36t10 -45q0 -21 -8 -41.5t-22 -34.5l-133 -133h164v-46h-223v28q0 24 17 41l138 139q8 9 14.5 23t6.5 29q0 27 -20.5 38t-47.5 11q-41 0 -59 -37l-42 20
q32 63 101 63zM44 -12l507 719h68l-505 -719h-70z" />
    <glyph glyph-name="threequarters" unicode="&#xbe;" horiz-adv-x="635" 
d="M238 695v-39q0 -11 -3.5 -19.5t-9.5 -16.5l-58 -67q87 -15 87 -106q0 -51 -28.5 -79t-80.5 -28q-79 0 -110 69l42 19q14 -25 29.5 -33.5t38.5 -8.5q28 0 45.5 16.5t17.5 45.5q0 34 -19.5 51t-48.5 17h-34v35l83 98h-143v46h192zM41 -12l507 719h68l-505 -719h-70zM498 85
h-155v45l153 218h51v-217h45l-15 -46h-30v-85h-49v85zM498 267l-97 -136h97v136z" />
    <glyph glyph-name="questiondown" unicode="&#xbf;" horiz-adv-x="384" 
d="M384 503v0v0v0v0v0v0v0v0zM384 503v0v0v0v0v0v0v0v0v0v0v0v0v0v0v0v0v0v0v0v0v0v0v0v0v0v0v0v0v0z" />
    <glyph glyph-name="Agrave" unicode="&#xc0;" 
d="M114 0h-96l259 695h112l272 -695h-94l-81 210h-295zM457 285l-95 244l-28 101l-27 -101l-90 -244h240zM226 847l1 13h77l76 -123h-69z" />
    <glyph glyph-name="Aacute" unicode="&#xc1;" 
d="M114 0h-96l259 695h112l272 -695h-94l-81 210h-295zM457 285l-95 244l-28 101l-27 -101l-90 -244h240zM370 860h77l1 -11l-85 -112h-69z" />
    <glyph glyph-name="Acircumflex" unicode="&#xc2;" 
d="M114 0h-96l259 695h112l272 -695h-94l-81 210h-295zM457 285l-95 244l-28 101l-27 -101l-90 -244h240zM471 748v-11h-76l-60 60l-60 -60h-76v11l116 112h40z" />
    <glyph glyph-name="Atilde" unicode="&#xc3;" 
d="M114 0h-96l259 695h112l272 -695h-94l-81 210h-295zM457 285l-95 244l-28 101l-27 -101l-90 -244h240zM190 792.5q5 19.5 16 34.5t27 24t39 9q18 0 34 -6.5t30.5 -14.5t28.5 -14.5t28 -6.5q25 0 35 13t10 29h47q0 -48 -24 -78t-68 -30q-20 0 -35 7t-28.5 15.5t-27.5 15.5
t-30 7q-17 0 -28.5 -14t-11.5 -31h-47q0 21 5 40.5z" />
    <glyph glyph-name="Adieresis" unicode="&#xc4;" 
d="M114 0h-96l259 695h112l272 -695h-94l-81 210h-295zM457 285l-95 244l-28 101l-27 -101l-90 -244h240zM458 846.5q14 -13.5 14 -33.5t-14 -33.5t-34 -13.5t-34 13.5t-14 33.5t14 33.5t34 13.5t34 -13.5zM280 846.5q14 -13.5 14 -33.5t-14 -33.5t-34 -13.5t-34 13.5
t-14 33.5t14 33.5t34 13.5t34 -13.5z" />
    <glyph glyph-name="Aring" unicode="&#xc5;" 
d="M114 0h-96l251 674l-4 4q-29 28 -29 68q0 19 7.5 36.5t21 30.5t31 21t38.5 8t39 -8t31.5 -21t21.5 -30.5t8 -36.5q0 -20 -8 -37.5t-22 -30.5l-6 -6l263 -672h-94l-81 210h-295zM301 777.5q-14 -12.5 -14 -31.5t12 -32t35 -13q21 0 34 13t13 32t-13 31.5t-34 12.5
q-19 0 -33 -12.5zM457 285l-72 184l-51 164l-49 -165l-68 -183h240z" />
    <glyph glyph-name="AE" unicode="&#xc6;" horiz-adv-x="966" 
d="M120 0h-100l375 695h530l-26 -83h-324v-206h286v-81h-286v-244h352v-81h-444v201h-255zM483 282v330h-39l-176 -330h215z" />
    <glyph glyph-name="Ccedilla" unicode="&#xc7;" horiz-adv-x="614" 
d="M139.5 250.5q6.5 -49.5 29 -90t66 -65.5t118.5 -25q45 0 86.5 16.5t73.5 50.5l63 -59q-44 -47 -102 -69q-53 -19 -110 -21l-17 -52q25 -5 44 -22t19 -41q0 -20 -9.5 -34.5t-25 -24t-34.5 -14.5t-37 -5q-21 0 -45 3t-44 10l9 42q16 -5 33.5 -7t33.5 -2q20 0 37.5 9
t17.5 26q0 14 -16 26.5t-41 14.5l23 73q-63 5 -108 25q-60 28 -96.5 76t-52.5 114t-16 143v37q0 76 19.5 135.5t58.5 101t98 63.5t138 22q61 0 119.5 -20.5t101.5 -64.5l-61 -61q-31 32 -73.5 47.5t-86.5 15.5q-66 0 -108.5 -21.5t-67.5 -56t-34.5 -77.5t-9.5 -86v-33
q0 -50 6.5 -99.5z" />
    <glyph glyph-name="Egrave" unicode="&#xc8;" horiz-adv-x="582" 
d="M60 0v695h500l-26 -82h-384v-203h344v-83h-344v-245h407v-82h-497zM213 855l1 13h77l76 -123h-69z" />
    <glyph glyph-name="Eacute" unicode="&#xc9;" horiz-adv-x="582" 
d="M60 0v695h500l-26 -82h-384v-203h344v-83h-344v-245h407v-82h-497zM345 874h77l1 -11l-85 -112h-69z" />
    <glyph glyph-name="Ecircumflex" unicode="&#xca;" horiz-adv-x="582" 
d="M60 0v695h500l-26 -82h-384v-203h344v-83h-344v-245h407v-82h-497zM461 758v-11h-76l-60 60l-60 -60h-76v11l116 112h40z" />
    <glyph glyph-name="Edieresis" unicode="&#xcb;" horiz-adv-x="582" 
d="M60 0v695h500l-26 -82h-384v-203h344v-83h-344v-245h407v-82h-497zM447 846.5q14 -13.5 14 -33.5t-14 -33.5t-34 -13.5t-34 13.5t-14 33.5t14 33.5t34 13.5t34 -13.5zM269 846.5q14 -13.5 14 -33.5t-14 -33.5t-34 -13.5t-34 13.5t-14 33.5t14 33.5t34 13.5t34 -13.5z" />
    <glyph glyph-name="Igrave" unicode="&#xcc;" horiz-adv-x="217" 
d="M151 0h-90v695h90v-695zM-10 851l1 13h77l76 -123h-69z" />
    <glyph glyph-name="Iacute" unicode="&#xcd;" horiz-adv-x="217" 
d="M151 0h-90v695h90v-695zM138 868h77l1 -11l-85 -112h-69z" />
    <glyph glyph-name="Icircumflex" unicode="&#xce;" horiz-adv-x="217" 
d="M151 0h-90v695h90v-695zM244 751v-11h-76l-60 60l-60 -60h-76v11l116 112h40z" />
    <glyph glyph-name="Idieresis" unicode="&#xcf;" horiz-adv-x="217" 
d="M151 0h-90v695h90v-695zM228 846.5q14 -13.5 14 -33.5t-14 -33.5t-34 -13.5t-34 13.5t-14 33.5t14 33.5t34 13.5t34 -13.5zM50 846.5q14 -13.5 14 -33.5t-14 -33.5t-34 -13.5t-34 13.5t-14 33.5t14 33.5t34 13.5t34 -13.5z" />
    <glyph glyph-name="Eth" unicode="&#xd0;" horiz-adv-x="675" 
d="M60 0v316h-71v62h71v317h304q74 0 125 -28t83 -76t46.5 -111t14.5 -133q0 -75 -13 -138.5t-44 -110t-82.5 -72.5t-127.5 -26h-306zM354 82q55 0 90.5 20t55.5 55.5t27.5 84t7.5 105.5q0 55 -9 103.5t-30 84.5t-56 57t-87 21h-203v-235h158v-62h-158v-234h204z" />
    <glyph glyph-name="Ntilde" unicode="&#xd1;" horiz-adv-x="673" 
d="M60 695h115l347 -558v558h90v-695h-110l-352 569v-569h-90v695zM201 792.5q5 19.5 16 34.5t27 24t39 9q18 0 34 -6.5t30.5 -14.5t28.5 -14.5t28 -6.5q25 0 35 13t10 29h47q0 -48 -24 -78t-68 -30q-20 0 -35 7t-28.5 15.5t-27.5 15.5t-30 7q-17 0 -28.5 -14t-11.5 -31h-47
q0 21 5 40.5z" />
    <glyph glyph-name="Ograve" unicode="&#xd2;" horiz-adv-x="732" 
d="M217 16q-62 28 -101 76.5t-57.5 114.5t-18.5 141v27q0 71 22.5 132t64.5 105.5t102.5 69.5t136.5 25t136.5 -25t102.5 -69.5t64.5 -105.5t22.5 -132v-27q0 -75 -18.5 -141t-57.5 -114.5t-101 -76.5t-149 -28t-149 28zM267 604q-43 -20 -72.5 -54t-45 -80t-15.5 -97v-23
q0 -57 13.5 -107.5t41.5 -89t71.5 -61t103.5 -22.5q62 0 106.5 21.5t73 59t41.5 88.5t13 111v23q0 51 -15.5 97t-45 80t-73 54t-98.5 20q-56 0 -99 -20zM263 862l1 13h77l76 -123h-69z" />
    <glyph glyph-name="Oacute" unicode="&#xd3;" horiz-adv-x="732" 
d="M217 16q-62 28 -101 76.5t-57.5 114.5t-18.5 141v27q0 71 22.5 132t64.5 105.5t102.5 69.5t136.5 25t136.5 -25t102.5 -69.5t64.5 -105.5t22.5 -132v-27q0 -75 -18.5 -141t-57.5 -114.5t-101 -76.5t-149 -28t-149 28zM267 604q-43 -20 -72.5 -54t-45 -80t-15.5 -97v-23
q0 -57 13.5 -107.5t41.5 -89t71.5 -61t103.5 -22.5q62 0 106.5 21.5t73 59t41.5 88.5t13 111v23q0 51 -15.5 97t-45 80t-73 54t-98.5 20q-56 0 -99 -20zM400 878h77l1 -11l-85 -112h-69z" />
    <glyph glyph-name="Ocircumflex" unicode="&#xd4;" horiz-adv-x="732" 
d="M217 16q-62 28 -101 76.5t-57.5 114.5t-18.5 141v27q0 71 22.5 132t64.5 105.5t102.5 69.5t136.5 25t136.5 -25t102.5 -69.5t64.5 -105.5t22.5 -132v-27q0 -75 -18.5 -141t-57.5 -114.5t-101 -76.5t-149 -28t-149 28zM267 604q-43 -20 -72.5 -54t-45 -80t-15.5 -97v-23
q0 -57 13.5 -107.5t41.5 -89t71.5 -61t103.5 -22.5q62 0 106.5 21.5t73 59t41.5 88.5t13 111v23q0 51 -15.5 97t-45 80t-73 54t-98.5 20q-56 0 -99 -20zM503 767v-11h-76l-60 60l-60 -60h-76v11l116 112h40z" />
    <glyph glyph-name="Otilde" unicode="&#xd5;" horiz-adv-x="732" 
d="M217 16q-62 28 -101 76.5t-57.5 114.5t-18.5 141v27q0 71 22.5 132t64.5 105.5t102.5 69.5t136.5 25t136.5 -25t102.5 -69.5t64.5 -105.5t22.5 -132v-27q0 -75 -18.5 -141t-57.5 -114.5t-101 -76.5t-149 -28t-149 28zM267 604q-43 -20 -72.5 -54t-45 -80t-15.5 -97v-23
q0 -57 13.5 -107.5t41.5 -89t71.5 -61t103.5 -22.5q62 0 106.5 21.5t73 59t41.5 88.5t13 111v23q0 51 -15.5 97t-45 80t-73 54t-98.5 20q-56 0 -99 -20zM221 792.5q5 19.5 16 34.5t27 24t39 9q18 0 34 -6.5t30.5 -14.5t28.5 -14.5t28 -6.5q25 0 35 13t10 29h47
q0 -48 -24 -78t-68 -30q-20 0 -35 7t-28.5 15.5t-27.5 15.5t-30 7q-17 0 -28.5 -14t-11.5 -31h-47q0 21 5 40.5z" />
    <glyph glyph-name="Odieresis" unicode="&#xd6;" horiz-adv-x="732" 
d="M217 16q-62 28 -101 76.5t-57.5 114.5t-18.5 141v27q0 71 22.5 132t64.5 105.5t102.5 69.5t136.5 25t136.5 -25t102.5 -69.5t64.5 -105.5t22.5 -132v-27q0 -75 -18.5 -141t-57.5 -114.5t-101 -76.5t-149 -28t-149 28zM267 604q-43 -20 -72.5 -54t-45 -80t-15.5 -97v-23
q0 -57 13.5 -107.5t41.5 -89t71.5 -61t103.5 -22.5q62 0 106.5 21.5t73 59t41.5 88.5t13 111v23q0 51 -15.5 97t-45 80t-73 54t-98.5 20q-56 0 -99 -20zM489 846.5q14 -13.5 14 -33.5t-14 -33.5t-34 -13.5t-34 13.5t-14 33.5t14 33.5t34 13.5t34 -13.5zM311 846.5
q14 -13.5 14 -33.5t-14 -33.5t-34 -13.5t-34 13.5t-14 33.5t14 33.5t34 13.5t34 -13.5z" />
    <glyph glyph-name="multiply" unicode="&#xd7;" horiz-adv-x="499" 
d="M302 313l151 -147l-56 -56l-151 147l-144 -147l-56 55l148 148l-148 148l56 56l148 -148l147 148l56 -56z" />
    <glyph glyph-name="Oslash" unicode="&#xd8;" horiz-adv-x="732" 
d="M217 16q-36 16 -64 39l-68 -76l-47 40l72 81q-35 46 -52 107q-18 66 -18 141v27q0 71 22.5 132t64.5 105.5t102.5 69.5t136.5 25t136 -25q47 -20 83 -51l60 67l47 -40l-65 -73q26 -35 42 -78q23 -61 23 -132v-27q0 -75 -18.5 -141t-57.5 -114.5t-101 -76.5t-149 -28
t-149 28zM267 604q-43 -20 -72.5 -54t-45 -80t-15.5 -97v-23q0 -57 13 -108q10 -38 29 -69l348 390q-25 25 -60 41q-43 20 -98 20q-56 0 -99 -20zM364 70q62 0 106.5 21.5t73 59t41.5 88.5t13 111v23q0 51 -16 97q-8 23 -19 43l-348 -389q20 -19 45 -32q44 -22 104 -22z" />
    <glyph glyph-name="Ugrave" unicode="&#xd9;" horiz-adv-x="651" 
d="M143 295q0 -54 6 -95.5t25.5 -70.5t55.5 -44t96 -15q58 0 94 15.5t56 45t26.5 71t6.5 93.5v400h90v-396q0 -72 -13 -129.5t-44.5 -98t-84 -62t-131.5 -21.5q-80 0 -133 21t-84 60.5t-43.5 97.5t-12.5 132v396h90v-400zM238 847l1 13h77l76 -123h-69z" />
    <glyph glyph-name="Uacute" unicode="&#xda;" horiz-adv-x="651" 
d="M143 295q0 -54 6 -95.5t25.5 -70.5t55.5 -44t96 -15q58 0 94 15.5t56 45t26.5 71t6.5 93.5v400h90v-396q0 -72 -13 -129.5t-44.5 -98t-84 -62t-131.5 -21.5q-80 0 -133 21t-84 60.5t-43.5 97.5t-12.5 132v396h90v-400zM353 862h77l1 -11l-85 -112h-69z" />
    <glyph glyph-name="Ucircumflex" unicode="&#xdb;" horiz-adv-x="651" 
d="M143 295q0 -54 6 -95.5t25.5 -70.5t55.5 -44t96 -15q58 0 94 15.5t56 45t26.5 71t6.5 93.5v400h90v-396q0 -72 -13 -129.5t-44.5 -98t-84 -62t-131.5 -21.5q-80 0 -133 21t-84 60.5t-43.5 97.5t-12.5 132v396h90v-400zM472 748v-11h-76l-60 60l-60 -60h-76v11l116 112h40
z" />
    <glyph glyph-name="Udieresis" unicode="&#xdc;" horiz-adv-x="651" 
d="M143 295q0 -54 6 -95.5t25.5 -70.5t55.5 -44t96 -15q58 0 94 15.5t56 45t26.5 71t6.5 93.5v400h90v-396q0 -72 -13 -129.5t-44.5 -98t-84 -62t-131.5 -21.5q-80 0 -133 21t-84 60.5t-43.5 97.5t-12.5 132v396h90v-400zM458 846.5q14 -13.5 14 -33.5t-14 -33.5t-34 -13.5
t-34 13.5t-14 33.5t14 33.5t34 13.5t34 -13.5zM280 846.5q14 -13.5 14 -33.5t-14 -33.5t-34 -13.5t-34 13.5t-14 33.5t14 33.5t34 13.5t34 -13.5z" />
    <glyph glyph-name="Yacute" unicode="&#xdd;" horiz-adv-x="617" 
d="M375 324q-7 -10 -20 -10v-314h-93v314q-12 0 -20 10l-230 359l89 24l198 -313h20l197 313l89 -24zM332 860h77l1 -11l-85 -112h-69z" />
    <glyph glyph-name="Thorn" unicode="&#xde;" horiz-adv-x="611" 
d="M152 695v-141h210q218 0 218 -207q0 -103 -57 -154.5t-166 -51.5h-205v-141h-92v695h92zM152 222h205q70 0 102 29.5t32 95.5t-29 95.5t-100 29.5h-210v-250z" />
    <glyph glyph-name="germandbls" unicode="&#xdf;" horiz-adv-x="569" 
d="M286 414.5q11 23.5 24 47t24 47t11 49.5q0 23 -10 38t-24.5 23.5t-30.5 12t-28 3.5q-31 0 -52 -10t-34 -28.5t-18.5 -44t-5.5 -55.5v-497h-86v497q0 47 12 86t36 66.5t61 42.5t87 15q40 0 73.5 -10.5t57.5 -30t37.5 -47t13.5 -61.5q0 -24 -11 -48t-24 -47t-24 -44.5
t-11 -40.5q0 -21 13.5 -36.5t34 -30t44 -29t44 -33.5t34 -43.5t13.5 -58.5q0 -33 -14 -62t-38 -50.5t-54.5 -34t-63.5 -12.5q-61 0 -105 29.5t-70 84.5l73 35q17 -34 40.5 -55.5t61.5 -21.5q33 0 56 23t23 58q0 24 -13.5 42.5t-33.5 34t-43.5 30t-43.5 31t-33.5 37
t-13.5 48.5q0 27 11 50.5z" />
    <glyph glyph-name="agrave" unicode="&#xe0;" horiz-adv-x="536" 
d="M250.5 69.5q23.5 7.5 48 19t47 23.5t38.5 21v87h-187q-16 0 -30 -6.5t-24 -17t-16 -25t-6 -29.5q0 -18 7.5 -32.5t20 -25t28 -16.5t32.5 -6q18 0 41.5 7.5zM346.5 504q36.5 -12 64 -35t43.5 -57t16 -79v-218q0 -35 6.5 -60t22.5 -55h-92q-8 11 -12.5 28t-5.5 31
q-41 -30 -90.5 -50.5t-100.5 -20.5q-34 0 -63.5 11t-51.5 31.5t-34.5 49t-12.5 63.5q0 33 13 60.5t35 47.5t51 31t61 11h188v46q0 54 -32.5 78.5t-83.5 25.5q-46 0 -79 -11t-72 -34l-37 64q24 14 45.5 24t44 17t46.5 10t52 3q42 0 78.5 -12zM190 683v24h79l56 -117h-62z" />
    <glyph glyph-name="aacute" unicode="&#xe1;" horiz-adv-x="536" 
d="M250.5 69.5q23.5 7.5 48 19t47 23.5t38.5 21v87h-187q-16 0 -30 -6.5t-24 -17t-16 -25t-6 -29.5q0 -18 7.5 -32.5t20 -25t28 -16.5t32.5 -6q18 0 41.5 7.5zM346.5 504q36.5 -12 64 -35t43.5 -57t16 -79v-218q0 -35 6.5 -60t22.5 -55h-92q-8 11 -12.5 28t-5.5 31
q-41 -30 -90.5 -50.5t-100.5 -20.5q-34 0 -63.5 11t-51.5 31.5t-34.5 49t-12.5 63.5q0 33 13 60.5t35 47.5t51 31t61 11h188v46q0 54 -32.5 78.5t-83.5 25.5q-46 0 -79 -11t-72 -34l-37 64q24 14 45.5 24t44 17t46.5 10t52 3q42 0 78.5 -12zM270 703h76v-24l-71 -94h-61z
" />
    <glyph glyph-name="acircumflex" unicode="&#xe2;" horiz-adv-x="536" 
d="M250.5 69.5q23.5 7.5 48 19t47 23.5t38.5 21v87h-187q-16 0 -30 -6.5t-24 -17t-16 -25t-6 -29.5q0 -18 7.5 -32.5t20 -25t28 -16.5t32.5 -6q18 0 41.5 7.5zM346.5 504q36.5 -12 64 -35t43.5 -57t16 -79v-218q0 -35 6.5 -60t22.5 -55h-92q-8 11 -12.5 28t-5.5 31
q-41 -30 -90.5 -50.5t-100.5 -20.5q-34 0 -63.5 11t-51.5 31.5t-34.5 49t-12.5 63.5q0 33 13 60.5t35 47.5t51 31t61 11h188v46q0 54 -32.5 78.5t-83.5 25.5q-46 0 -79 -11t-72 -34l-37 64q24 14 45.5 24t44 17t46.5 10t52 3q42 0 78.5 -12zM411 595v-11h-76l-60 60l-60 -60
h-76v11l116 112h40z" />
    <glyph glyph-name="atilde" unicode="&#xe3;" horiz-adv-x="536" 
d="M250.5 69.5q23.5 7.5 48 19t47 23.5t38.5 21v87h-187q-16 0 -30 -6.5t-24 -17t-16 -25t-6 -29.5q0 -18 7.5 -32.5t20 -25t28 -16.5t32.5 -6q18 0 41.5 7.5zM346.5 504q36.5 -12 64 -35t43.5 -57t16 -79v-218q0 -35 6.5 -60t22.5 -55h-92q-8 11 -12.5 28t-5.5 31
q-41 -30 -90.5 -50.5t-100.5 -20.5q-34 0 -63.5 11t-51.5 31.5t-34.5 49t-12.5 63.5q0 33 13 60.5t35 47.5t51 31t61 11h188v46q0 54 -32.5 78.5t-83.5 25.5q-46 0 -79 -11t-72 -34l-37 64q24 14 45.5 24t44 17t46.5 10t52 3q42 0 78.5 -12zM136 639.5q5 19.5 16 34.5t27 24
t39 9q18 0 34 -6.5t30.5 -14.5t28.5 -14.5t28 -6.5q25 0 35 13t10 29h47q0 -48 -24 -78t-68 -30q-20 0 -35 7t-28.5 15.5t-27.5 15.5t-30 7q-17 0 -28.5 -14t-11.5 -31h-47q0 21 5 40.5z" />
    <glyph glyph-name="adieresis" unicode="&#xe4;" horiz-adv-x="536" 
d="M250.5 69.5q23.5 7.5 48 19t47 23.5t38.5 21v87h-187q-16 0 -30 -6.5t-24 -17t-16 -25t-6 -29.5q0 -18 7.5 -32.5t20 -25t28 -16.5t32.5 -6q18 0 41.5 7.5zM346.5 504q36.5 -12 64 -35t43.5 -57t16 -79v-218q0 -35 6.5 -60t22.5 -55h-92q-8 11 -12.5 28t-5.5 31
q-41 -30 -90.5 -50.5t-100.5 -20.5q-34 0 -63.5 11t-51.5 31.5t-34.5 49t-12.5 63.5q0 33 13 60.5t35 47.5t51 31t61 11h188v46q0 54 -32.5 78.5t-83.5 25.5q-46 0 -79 -11t-72 -34l-37 64q24 14 45.5 24t44 17t46.5 10t52 3q42 0 78.5 -12zM388 693.5q14 -13.5 14 -33.5
t-14 -33.5t-34 -13.5t-34 13.5t-14 33.5t14 33.5t34 13.5t34 -13.5zM210 693.5q14 -13.5 14 -33.5t-14 -33.5t-34 -13.5t-34 13.5t-14 33.5t14 33.5t34 13.5t34 -13.5z" />
    <glyph glyph-name="aring" unicode="&#xe5;" horiz-adv-x="536" 
d="M224 660q-15 -14 -15 -35q0 -20 15 -34.5t36 -14.5q22 0 36.5 14.5t14.5 34.5q0 21 -14.5 35t-36.5 14q-21 0 -36 -14zM293.5 700.5q15.5 -6.5 27 -17.5t18.5 -26t7 -32t-7 -32t-18.5 -26t-27 -17t-33.5 -6q-35 0 -60 24t-25 57q0 17 6.5 32t18 26t27 17.5t33.5 6.5
t33.5 -6.5zM250.5 69.5q23.5 7.5 48 19t47 23.5t38.5 21v87h-187q-16 0 -30 -6.5t-24 -17t-16 -25t-6 -29.5q0 -18 7.5 -32.5t20 -25t28 -16.5t32.5 -6q18 0 41.5 7.5zM346.5 504q36.5 -12 64 -35t43.5 -57t16 -79v-218q0 -35 6.5 -60t22.5 -55h-92q-8 11 -12.5 28t-5.5 31
q-41 -30 -90.5 -50.5t-100.5 -20.5q-34 0 -63.5 11t-51.5 31.5t-34.5 49t-12.5 63.5q0 33 13 60.5t35 47.5t51 31t61 11h188v46q0 54 -32.5 78.5t-83.5 25.5q-46 0 -79 -11t-72 -34l-37 64q24 14 45.5 24t44 17t46.5 10t52 3q42 0 78.5 -12z" />
    <glyph glyph-name="ae" unicode="&#xe6;" horiz-adv-x="880" 
d="M363 499q46 -18 75 -57q35 39 86.5 57t101.5 18q53 0 94.5 -18.5t69.5 -50.5t42.5 -76.5t14.5 -95.5v-45h-379v-10q2 -82 47.5 -120.5t126.5 -38.5q74 0 119 63l75 -31q-32 -51 -84 -78.5t-113 -27.5q-59 0 -114 16.5t-91 60.5q-51 -35 -113 -56t-125 -21
q-34 0 -63.5 11.5t-51 32.5t-34 49.5t-12.5 62.5q0 33 13 60.5t35 47.5t51 31.5t61 11.5h188v45q0 55 -32 78.5t-85 23.5q-46 0 -79.5 -11t-71.5 -34l-36 65q24 14 45.5 24.5t43.5 17t46 10t52 3.5q51 0 97 -18zM195 221q-32 0 -54 -22.5t-22 -54.5q0 -38 25 -60t63 -22
q51 0 101 20.5t91 48.5q-8 23 -11.5 45.5t-4.5 44.5h-188zM761 301v8q0 30 -11 54.5t-30 42t-43 27t-51 9.5q-32 0 -60 -11t-49.5 -30t-34.5 -45t-14 -55h293z" />
    <glyph glyph-name="ccedilla" unicode="&#xe7;" horiz-adv-x="484" 
d="M258 -64q23 -5 40 -22t17 -42q0 -20 -8.5 -34.5t-22.5 -24t-31 -14.5t-33 -5q-19 0 -40.5 3t-39.5 10l8 42q14 -5 30 -7t30 -2q18 0 33.5 9t15.5 26q0 14 -14 27t-37 15l26 92l47 -3zM379 500q44 -16 76 -48l-53 -52q-22 19 -48.5 30.5t-67.5 11.5q-34 0 -63 -11.5
t-50 -34.5q-22 -24 -33 -58t-11 -69v-16q0 -44 12 -84.5t40 -67.5q19 -18 44.5 -28.5t60.5 -10.5q30 0 63.5 10t53.5 34l53 -51q-33 -35 -77.5 -51t-92.5 -16q-40 0 -83.5 12t-75.5 38q-27 22 -44.5 50.5t-25.5 66.5q-5 24 -6.5 48t-1.5 48v19q0 24 1.5 46t7 42.5t16 41
t29.5 42.5q16 19 38 33t47 23t51.5 13.5t50.5 4.5q45 0 89 -16z" />
    <glyph glyph-name="egrave" unicode="&#xe8;" horiz-adv-x="547" 
d="M173.5 102q40.5 -40 122.5 -40q40 0 68 16.5t50 45.5l76 -31q-29 -49 -81 -77t-118 -28q-67 0 -113.5 18.5t-75.5 52t-42 81t-13 105.5v11q0 25 1 48.5t6 46.5t16 45.5t31 44.5q34 38 81 56.5t97 18.5q56 0 99.5 -18t73 -50t44.5 -76t15 -97v-45h-378q0 -88 40.5 -128z
M425 300v9q0 25 -10 49t-29 42.5t-46 30t-61 11.5q-32 0 -59 -11t-46.5 -29.5t-30 -42.5t-10.5 -50v-9h292zM185 682v25h72l52 -122h-57z" />
    <glyph glyph-name="eacute" unicode="&#xe9;" horiz-adv-x="547" 
d="M173.5 102q40.5 -40 122.5 -40q40 0 68 16.5t50 45.5l76 -31q-29 -49 -81 -77t-118 -28q-67 0 -113.5 18.5t-75.5 52t-42 81t-13 105.5v11q0 25 1 48.5t6 46.5t16 45.5t31 44.5q34 38 81 56.5t97 18.5q56 0 99.5 -18t73 -50t44.5 -76t15 -97v-45h-378q0 -88 40.5 -128z
M425 300v9q0 25 -10 49t-29 42.5t-46 30t-61 11.5q-32 0 -59 -11t-46.5 -29.5t-30 -42.5t-10.5 -50v-9h292zM293 707h72v-25l-67 -97h-57z" />
    <glyph glyph-name="ecircumflex" unicode="&#xea;" horiz-adv-x="547" 
d="M173.5 102q40.5 -40 122.5 -40q40 0 68 16.5t50 45.5l76 -31q-29 -49 -81 -77t-118 -28q-67 0 -113.5 18.5t-75.5 52t-42 81t-13 105.5v11q0 25 1 48.5t6 46.5t16 45.5t31 44.5q34 38 81 56.5t97 18.5q56 0 99.5 -18t73 -50t44.5 -76t15 -97v-45h-378q0 -88 40.5 -128z
M425 300v9q0 25 -10 49t-29 42.5t-46 30t-61 11.5q-32 0 -59 -11t-46.5 -29.5t-30 -42.5t-10.5 -50v-9h292zM418 595v-11h-76l-60 60l-60 -60h-76v11l116 112h40z" />
    <glyph glyph-name="edieresis" unicode="&#xeb;" horiz-adv-x="547" 
d="M173.5 102q40.5 -40 122.5 -40q40 0 68 16.5t50 45.5l76 -31q-29 -49 -81 -77t-118 -28q-67 0 -113.5 18.5t-75.5 52t-42 81t-13 105.5v11q0 25 1 48.5t6 46.5t16 45.5t31 44.5q34 38 81 56.5t97 18.5q56 0 99.5 -18t73 -50t44.5 -76t15 -97v-45h-378q0 -88 40.5 -128z
M425 300v9q0 25 -10 49t-29 42.5t-46 30t-61 11.5q-32 0 -59 -11t-46.5 -29.5t-30 -42.5t-10.5 -50v-9h292zM404 693.5q14 -13.5 14 -33.5t-14 -33.5t-34 -13.5t-34 13.5t-14 33.5t14 33.5t34 13.5t34 -13.5zM226 693.5q14 -13.5 14 -33.5t-14 -33.5t-34 -13.5t-34 13.5
t-14 33.5t14 33.5t34 13.5t34 -13.5z" />
    <glyph glyph-name="igrave" unicode="&#xec;" horiz-adv-x="170" 
d="M2 693v14h72l52 -122h-74zM42 504h86v-504h-86v504z" />
    <glyph glyph-name="iacute" unicode="&#xed;" horiz-adv-x="171" 
d="M89 707h72v-15l-58 -107h-66zM41 504h86v-504h-86v504z" />
    <glyph glyph-name="icircumflex" unicode="&#xee;" horiz-adv-x="242" 
d="M228 594v-9h-60l-47 59l-47 -59h-60v10l84 112h46zM78 504h86v-504h-86v504z" />
    <glyph glyph-name="idieresis" unicode="&#xef;" horiz-adv-x="293" 
d="M268 693.5q14 -13.5 14 -33.5t-14 -33.5t-34 -13.5t-34 13.5t-14 33.5t14 33.5t34 13.5t34 -13.5zM90 693.5q14 -13.5 14 -33.5t-14 -33.5t-34 -13.5t-34 13.5t-14 33.5t14 33.5t34 13.5t34 -13.5zM102 504h86v-504h-86v504z" />
    <glyph glyph-name="eth" unicode="&#xf0;" horiz-adv-x="498" 
d="M392 270q-1 34 -11 63.5t-28.5 51.5t-45.5 34t-62 12q-36 0 -63 -12.5t-45.5 -35t-28 -53.5t-9.5 -67v-17q0 -39 7 -73t24.5 -59t45.5 -39.5t70 -14.5q41 0 69 15t45 40.5t24.5 59.5t7.5 71v24zM127 570l97 45q-49 47 -101 80l42 52q38 -21 71 -45.5t62 -52.5l97 46
l24 -46l-84 -39q62 -71 95 -156t35 -184v-25q0 -53 -11.5 -99.5t-47.5 -87.5q-32 -36 -73.5 -53t-88.5 -17q-45 0 -87 17.5t-74 52.5q-35 38 -45.5 86t-10.5 102v17q0 25 2.5 47.5t9 43t18 40.5t29.5 40q32 35 72 52t86 17q42 0 79 -14q-14 23 -29.5 45t-32.5 42l-110 -51z
" />
    <glyph glyph-name="ntilde" unicode="&#xf1;" horiz-adv-x="535" 
d="M204.5 424.5q-34.5 -17.5 -48.5 -32.5v-392h-86v380q0 53 -23 99l79 37q8 -14 14 -28t10 -31h6q21 26 58.5 42.5t71.5 16.5q46 0 82.5 -14.5t61.5 -40t38 -60t13 -74.5v-327h-86v328q0 52 -31.5 83t-79.5 31q-45 0 -79.5 -17.5zM122 639.5q5 19.5 16 34.5t27 24t39 9
q18 0 34 -6.5t30.5 -14.5t28.5 -14.5t28 -6.5q25 0 35 13t10 29h47q0 -48 -24 -78t-68 -30q-20 0 -35 7t-28.5 15.5t-27.5 15.5t-30 7q-17 0 -28.5 -14t-11.5 -31h-47q0 21 5 40.5z" />
    <glyph glyph-name="ograve" unicode="&#xf2;" horiz-adv-x="552" 
d="M437 272q0 73 -38 119q-20 24 -50 37.5t-69 13.5q-38 0 -67 -12.5t-49 -35.5q-40 -46 -40 -123v-23q0 -42 9 -78t31 -62q18 -22 46.5 -34t69.5 -12q38 0 65 11t46 31q26 26 36 65t10 83v20zM374 5.5q-44 -17.5 -95 -17.5q-49 0 -94 18t-80 54q-38 38 -49.5 88t-11.5 104
v19q1 52 13 93t51 82q35 36 78 53t93 17t92.5 -16.5t77.5 -51.5q36 -37 52 -80t16 -95v-21q0 -54 -12 -102t-52 -90q-35 -37 -79 -54.5zM206 682v25h72l52 -122h-57z" />
    <glyph glyph-name="oacute" unicode="&#xf3;" horiz-adv-x="552" 
d="M437 272q0 73 -38 119q-20 24 -50 37.5t-69 13.5q-38 0 -67 -12.5t-49 -35.5q-40 -46 -40 -123v-23q0 -42 9 -78t31 -62q18 -22 46.5 -34t69.5 -12q38 0 65 11t46 31q26 26 36 65t10 83v20zM374 5.5q-44 -17.5 -95 -17.5q-49 0 -94 18t-80 54q-38 38 -49.5 88t-11.5 104
v19q1 52 13 93t51 82q35 36 78 53t93 17t92.5 -16.5t77.5 -51.5q36 -37 52 -80t16 -95v-21q0 -54 -12 -102t-52 -90q-35 -37 -79 -54.5zM287 707h72v-25l-67 -97h-57z" />
    <glyph glyph-name="ocircumflex" unicode="&#xf4;" horiz-adv-x="552" 
d="M437 272q0 73 -38 119q-20 24 -50 37.5t-69 13.5q-38 0 -67 -12.5t-49 -35.5q-40 -46 -40 -123v-23q0 -42 9 -78t31 -62q18 -22 46.5 -34t69.5 -12q38 0 65 11t46 31q26 26 36 65t10 83v20zM374 5.5q-44 -17.5 -95 -17.5q-49 0 -94 18t-80 54q-38 38 -49.5 88t-11.5 104
v19q1 52 13 93t51 82q35 36 78 53t93 17t92.5 -16.5t77.5 -51.5q36 -37 52 -80t16 -95v-21q0 -54 -12 -102t-52 -90q-35 -37 -79 -54.5zM418 595v-11h-76l-60 60l-60 -60h-76v11l116 112h40z" />
    <glyph glyph-name="otilde" unicode="&#xf5;" horiz-adv-x="552" 
d="M437 272q0 73 -38 119q-20 24 -50 37.5t-69 13.5q-38 0 -67 -12.5t-49 -35.5q-40 -46 -40 -123v-23q0 -42 9 -78t31 -62q18 -22 46.5 -34t69.5 -12q38 0 65 11t46 31q26 26 36 65t10 83v20zM374 5.5q-44 -17.5 -95 -17.5q-49 0 -94 18t-80 54q-38 38 -49.5 88t-11.5 104
v19q1 52 13 93t51 82q35 36 78 53t93 17t92.5 -16.5t77.5 -51.5q36 -37 52 -80t16 -95v-21q0 -54 -12 -102t-52 -90q-35 -37 -79 -54.5zM133 639.5q5 19.5 16 34.5t27 24t39 9q18 0 34 -6.5t30.5 -14.5t28.5 -14.5t28 -6.5q25 0 35 13t10 29h47q0 -48 -24 -78t-68 -30
q-20 0 -35 7t-28.5 15.5t-27.5 15.5t-30 7q-17 0 -28.5 -14t-11.5 -31h-47q0 21 5 40.5z" />
    <glyph glyph-name="odieresis" unicode="&#xf6;" horiz-adv-x="552" 
d="M437 272q0 73 -38 119q-20 24 -50 37.5t-69 13.5q-38 0 -67 -12.5t-49 -35.5q-40 -46 -40 -123v-23q0 -42 9 -78t31 -62q18 -22 46.5 -34t69.5 -12q38 0 65 11t46 31q26 26 36 65t10 83v20zM374 5.5q-44 -17.5 -95 -17.5q-49 0 -94 18t-80 54q-38 38 -49.5 88t-11.5 104
v19q1 52 13 93t51 82q35 36 78 53t93 17t92.5 -16.5t77.5 -51.5q36 -37 52 -80t16 -95v-21q0 -54 -12 -102t-52 -90q-35 -37 -79 -54.5zM396 693.5q14 -13.5 14 -33.5t-14 -33.5t-34 -13.5t-34 13.5t-14 33.5t14 33.5t34 13.5t34 -13.5zM218 693.5q14 -13.5 14 -33.5
t-14 -33.5t-34 -13.5t-34 13.5t-14 33.5t14 33.5t34 13.5t34 -13.5z" />
    <glyph glyph-name="divide" unicode="&#xf7;" horiz-adv-x="497" 
d="M279.5 204q14.5 -14 14.5 -34t-14.5 -34t-34.5 -14t-34 14t-14 34t14 34t34 14t34.5 -14zM279.5 490q14.5 -14 14.5 -34t-14.5 -34t-34.5 -14t-34 14t-14 34t14 34t34 14t34.5 -14zM488 354q3 -12 4.5 -21t1.5 -18q0 -16 -6 -40h-478q-7 22 -7 40q0 17 7 39h478z" />
    <glyph glyph-name="oslash" unicode="&#xf8;" horiz-adv-x="552" 
d="M433 272q0 73 -38 119q-20 24 -50 37.5t-69 13.5q-38 0 -67 -12.5t-49 -35.5q-40 -46 -40 -123v-23q0 -42 9 -78t31 -62q18 -22 46.5 -34t69.5 -12q38 0 65 11t46 31q26 26 36 65t10 83v20zM370 5.5q-44 -17.5 -95 -17.5q-49 0 -94 18t-80 54q-38 38 -49.5 88t-11.5 104
v19q1 52 13 93t51 82q35 36 78 53t93 17t92.5 -16.5t77.5 -51.5q36 -37 52 -80t16 -95v-21q0 -54 -12 -102t-52 -90q-35 -37 -79 -54.5zM524 481l-447 -502l-47 40l447 502z" />
    <glyph glyph-name="ugrave" unicode="&#xf9;" horiz-adv-x="538" 
d="M98.5 34q-42.5 46 -42.5 138v328l86 16v-344q0 -59 23 -84.5t72 -25.5q29 0 66.5 18.5t76.5 61.5v358l86 16v-401q0 -37 7 -61.5t22 -53.5h-92q-7 10 -12 27.5t-6 31.5q-19 -20 -43 -36q-20 -14 -47 -24.5t-58 -10.5q-96 0 -138.5 46zM204 682v25h72l52 -122h-57z" />
    <glyph glyph-name="uacute" unicode="&#xfa;" horiz-adv-x="538" 
d="M98.5 34q-42.5 46 -42.5 138v328l86 16v-344q0 -59 23 -84.5t72 -25.5q29 0 66.5 18.5t76.5 61.5v358l86 16v-401q0 -37 7 -61.5t22 -53.5h-92q-7 10 -12 27.5t-6 31.5q-19 -20 -43 -36q-20 -14 -47 -24.5t-58 -10.5q-96 0 -138.5 46zM272 707h72v-25l-67 -97h-57z" />
    <glyph glyph-name="ucircumflex" unicode="&#xfb;" horiz-adv-x="538" 
d="M98.5 34q-42.5 46 -42.5 138v328l86 16v-344q0 -59 23 -84.5t72 -25.5q29 0 66.5 18.5t76.5 61.5v358l86 16v-401q0 -37 7 -61.5t22 -53.5h-92q-7 10 -12 27.5t-6 31.5q-19 -20 -43 -36q-20 -14 -47 -24.5t-58 -10.5q-96 0 -138.5 46zM407 595v-11h-76l-60 60l-60 -60
h-76v11l116 112h40z" />
    <glyph glyph-name="udieresis" unicode="&#xfc;" horiz-adv-x="538" 
d="M98.5 34q-42.5 46 -42.5 138v328l86 16v-344q0 -59 23 -84.5t72 -25.5q29 0 66.5 18.5t76.5 61.5v358l86 16v-401q0 -37 7 -61.5t22 -53.5h-92q-7 10 -12 27.5t-6 31.5q-19 -20 -43 -36q-20 -14 -47 -24.5t-58 -10.5q-96 0 -138.5 46zM395 693.5q14 -13.5 14 -33.5
t-14 -33.5t-34 -13.5t-34 13.5t-14 33.5t14 33.5t34 13.5t34 -13.5zM217 693.5q14 -13.5 14 -33.5t-14 -33.5t-34 -13.5t-34 13.5t-14 33.5t14 33.5t34 13.5t34 -13.5z" />
    <glyph glyph-name="yacute" unicode="&#xfd;" horiz-adv-x="542" 
d="M263.5 -178.5q-28.5 -27.5 -70.5 -27.5q-14 0 -29.5 2.5t-38.5 9.5v63h42q23 0 39 6.5t24 29.5l34 98q-29 7 -49.5 27t-31.5 48l-158 414l83 24l156 -408q4 -10 9.5 -16t16.5 -6h4l155 430l83 -24l-223 -599q-17 -44 -45.5 -71.5zM282 707h72v-25l-67 -97h-57z" />
    <glyph glyph-name="thorn" unicode="&#xfe;" horiz-adv-x="493" 
d="M415 272q0 36 -7 67.5t-22.5 54.5t-41.5 36t-64 13q-39 0 -64.5 -13t-41 -36t-22 -54t-6.5 -68v-20q0 -40 4 -74.5t18 -60.5t40.5 -41t71.5 -15q44 0 70.5 15.5t41 41.5t19 60.5t4.5 72.5v21zM146 707v-233q25 20 57.5 31t75.5 11q53 0 93 -18.5t67 -51t40.5 -77
t13.5 -96.5v-22q0 -56 -11 -104t-36.5 -83.5t-66.5 -55.5t-100 -20q-44 0 -76.5 10.5t-56.5 29.5v-222h-86v876z" />
    <glyph glyph-name="ydieresis" unicode="&#xff;" horiz-adv-x="542" 
d="M263.5 -178.5q-28.5 -27.5 -70.5 -27.5q-14 0 -29.5 2.5t-38.5 9.5v63h42q23 0 39 6.5t24 29.5l34 98q-29 7 -49.5 27t-31.5 48l-158 414l83 24l156 -408q4 -10 9.5 -16t16.5 -6h4l155 430l83 -24l-223 -599q-17 -44 -45.5 -71.5zM405 693.5q14 -13.5 14 -33.5t-14 -33.5
t-34 -13.5t-34 13.5t-14 33.5t14 33.5t34 13.5t34 -13.5zM227 693.5q14 -13.5 14 -33.5t-14 -33.5t-34 -13.5t-34 13.5t-14 33.5t14 33.5t34 13.5t34 -13.5z" />
    <glyph glyph-name="dotlessi" unicode="&#x131;" horiz-adv-x="213" 
d="M60 504h86v-504h-86v504z" />
    <glyph glyph-name="Ldot" horiz-adv-x="493" 
d="M150 82h343l-25 -82h-408v695h90v-613zM371 370.5q14 -13.5 14 -33.5t-14 -33.5t-34 -13.5t-34 13.5t-14 33.5t14 33.5t34 13.5t34 -13.5z" />
    <glyph glyph-name="ldot" horiz-adv-x="295" 
d="M141 707v-585q0 -60 62 -60h51v-62q-17 -6 -36.5 -9t-33.5 -3q-27 0 -50.5 10.5t-41 28.5t-27.5 42.5t-10 53.5v560zM278 372.5q14 -13.5 14 -33.5t-14 -33.5t-34 -13.5t-34 13.5t-14 33.5t14 33.5t34 13.5t34 -13.5z" />
    <glyph glyph-name="OE" unicode="&#x152;" horiz-adv-x="1123" 
d="M213.5 16q-62.5 28 -101 76.5t-55.5 114.5t-17 141v37q0 71 21 130.5t62.5 102t102.5 66t141 23.5q78 0 137 -22t101 -63v73h496l-26 -82h-380v-203h340v-83h-340v-245h403v-82h-493v74q-39 -41 -97.5 -63.5t-140.5 -22.5q-91 0 -153.5 28zM264 605.5
q-44 -18.5 -73 -50.5t-43 -76.5t-14 -95.5v-33q0 -57 12 -107.5t39.5 -89t71.5 -61t108 -22.5q66 0 111 21.5t72.5 59t39.5 88.5t12 111v33q0 51 -14 95.5t-43 76.5t-73 50.5t-103 18.5t-103 -18.5z" />
    <glyph glyph-name="oe" unicode="&#x153;" horiz-adv-x="932" 
d="M561.5 102q40.5 -40 122.5 -40q40 0 68 16.5t50 45.5l76 -31q-29 -49 -81 -77t-118 -28q-80 0 -130.5 25.5t-77.5 71.5q-5 -6 -10 -12.5t-11 -12.5q-35 -37 -79 -54.5t-95 -17.5q-49 0 -94 18t-80 54q-38 38 -49.5 88t-11.5 104v19q1 52 13 93t51 82q35 36 78 53t93 17
t92.5 -16.5t77.5 -51.5q13 -15 24 -30q5 6 9.5 11.5t9.5 11.5q34 38 81 56.5t97 18.5q56 0 99.5 -18t73 -50t44.5 -76t15 -97v-45h-378q0 -88 40.5 -128zM434 272q0 73 -38 119q-20 24 -50 37.5t-69 13.5q-38 0 -67 -12.5t-49 -35.5q-40 -46 -40 -123v-23q0 -42 9 -78
t31 -62q18 -22 46.5 -34t69.5 -12q38 0 65 11t46 31q26 26 36 65t10 83v20zM813 300v9q0 25 -10 49t-29 42.5t-46 30t-61 11.5q-32 0 -59 -11t-46.5 -29.5t-30 -42.5t-10.5 -50v-9h292z" />
    <glyph glyph-name="circumflex" unicode="&#x2c6;" horiz-adv-x="273" 
d="M273 748v-11h-76l-60 60l-60 -60h-76v11l116 112h40z" />
    <glyph glyph-name="breve" horiz-adv-x="347" 
d="M120 746q-25 8 -44 23.5t-30 38.5t-11 52h51q0 -17 7.5 -29t20 -20t28 -12t31.5 -4q15 0 30.5 3.5t28 11.5t20.5 20.5t8 29.5h51q0 -30 -11.5 -52.5t-30.5 -38t-44 -23.5t-52 -8q-28 0 -53 8z" />
    <glyph glyph-name="ring" unicode="&#x2da;" horiz-adv-x="244" 
d="M86 794.5q-15 -14.5 -15 -36.5q0 -21 15 -36t36 -15q22 0 36.5 15t14.5 36q0 22 -14.5 36.5t-36.5 14.5q-21 0 -36 -14.5zM155.5 837q15.5 -7 27 -18.5t18.5 -27t7 -33.5t-7 -33.5t-18.5 -27t-27 -18t-33.5 -6.5q-35 0 -60 25t-25 60q0 18 6.5 33.5t18 27t27 18.5t33.5 7
t33.5 -7z" />
    <glyph glyph-name="tilde" unicode="&#x2dc;" horiz-adv-x="393" 
d="M53 792.5q5 19.5 16 34.5t27 24t39 9q18 0 34 -6.5t30.5 -14.5t28.5 -14.5t28 -6.5q25 0 35 13t10 29h47q0 -48 -24 -78t-68 -30q-20 0 -35 7t-28.5 15.5t-27.5 15.5t-30 7q-17 0 -28.5 -14t-11.5 -31h-47q0 21 5 40.5z" />
    <glyph glyph-name="gravecomb" horiz-adv-x="0" 
d="M-144 682v25h72l52 -122h-57z" />
    <glyph glyph-name="acutecomb" horiz-adv-x="0" 
d="M-87 707h72v-25l-67 -97h-57z" />
    <glyph glyph-name="uni0302" horiz-adv-x="0" 
d="M1 595v-11h-76l-60 60l-60 -60h-76v11l116 112h40z" />
    <glyph glyph-name="tildecomb" horiz-adv-x="0" 
d="M-340 639.5q5 19.5 16 34.5t27 24t39 9q18 0 34 -6.5t30.5 -14.5t28.5 -14.5t28 -6.5q25 0 35 13t10 29h47q0 -48 -24 -78t-68 -30q-20 0 -35 7t-28.5 15.5t-27.5 15.5t-30 7q-17 0 -28.5 -14t-11.5 -31h-47q0 21 5 40.5z" />
    <glyph glyph-name="uni0306" horiz-adv-x="0" 
d="M-226 593q-25 8 -44 23.5t-30 38.5t-11 52h51q0 -17 7.5 -29t20 -20t28 -12t31.5 -4q15 0 30.5 3.5t28 11.5t20.5 20.5t8 29.5h51q0 -30 -11.5 -52.5t-30.5 -38t-44 -23.5t-52 -8q-28 0 -53 8z" />
    <glyph glyph-name="uni0308" horiz-adv-x="0" 
d="M-66 693.5q14 -13.5 14 -33.5t-14 -33.5t-34 -13.5t-34 13.5t-14 33.5t14 33.5t34 13.5t34 -13.5zM-244 693.5q14 -13.5 14 -33.5t-14 -33.5t-34 -13.5t-34 13.5t-14 33.5t14 33.5t34 13.5t34 -13.5z" />
    <glyph glyph-name="uni0401" unicode="&#x401;" horiz-adv-x="582" 
d="M60 0v695h500l-26 -82h-384v-203h344v-83h-344v-245h407v-82h-497zM447 846.5q14 -13.5 14 -33.5t-14 -33.5t-34 -13.5t-34 13.5t-14 33.5t14 33.5t34 13.5t34 -13.5zM269 846.5q14 -13.5 14 -33.5t-14 -33.5t-34 -13.5t-34 13.5t-14 33.5t14 33.5t34 13.5t34 -13.5z" />
    <glyph glyph-name="uni0402" unicode="&#x402;" horiz-adv-x="798" 
d="M247 613h-231v82h552l-26 -82h-205v-230q21 12 46 22.5t51 19t51.5 13.5t48.5 5q54 0 105 -18.5t87 -61.5q27 -32 36 -67.5t9 -74.5q0 -42 -6 -83.5t-34 -75.5q-35 -43 -76 -58.5t-96 -15.5q-24 0 -49 3.5t-48 11.5l16 82q18 -5 40 -8t41 -3q35 0 59 7t47 35q7 9 11.5 22
t6 27.5t2 28.5t0.5 26q0 22 -5 46.5t-19 41.5q-24 28 -58 38.5t-69 10.5q-24 0 -50 -5t-51.5 -13.5t-50 -19t-45.5 -22.5v-297h-90v613z" />
    <glyph glyph-name="uni0403" unicode="&#x403;" horiz-adv-x="491" 
d="M60 695h445l-26 -82h-329v-613h-90v695zM303 860h77l1 -11l-85 -112h-69z" />
    <glyph glyph-name="uni0404" unicode="&#x404;" horiz-adv-x="615" 
d="M143 252.5q4 -32.5 14 -61t27.5 -53t46.5 -40.5q47 -28 123 -28q45 0 86.5 16.5t73.5 50.5l63 -59q-44 -47 -102 -68.5t-121 -21.5q-38 0 -80.5 6.5t-76.5 23.5q-54 28 -85.5 62t-47 75.5t-20 89.5t-4.5 103v37q0 49 6.5 92.5t24.5 80t48.5 66.5t78.5 53q34 17 76 23.5
t80 6.5q61 0 119.5 -20.5t101.5 -64.5l-61 -61q-31 32 -73.5 47.5t-86.5 15.5q-35 0 -63.5 -7t-51.5 -18q-29 -15 -47.5 -36.5t-30 -48t-17 -55.5t-6.5 -59h241v-82h-241q1 -33 5 -65.5z" />
    <glyph glyph-name="uni0405" unicode="&#x405;" horiz-adv-x="586" 
d="M79 606q22 36 57.5 58.5t80.5 32.5t90 10q64 0 122.5 -25.5t100.5 -73.5l-65 -58q-32 38 -75 56t-94 18q-25 0 -51 -6t-47 -19t-34.5 -32t-13.5 -44q0 -47 29.5 -71.5t74.5 -39t96.5 -26.5t96.5 -33.5t74.5 -59.5t29.5 -105q0 -54 -25 -92t-64 -62t-86.5 -35t-91.5 -11
q-85 0 -150 38.5t-104 112.5l78 41q31 -57 74 -83.5t103 -26.5q26 0 56.5 5t57 18t44.5 36t18 59q0 44 -30 67.5t-75 38.5t-97 27.5t-97 34.5t-75 60t-30 103q0 51 22 87z" />
    <glyph glyph-name="uni0406" unicode="&#x406;" horiz-adv-x="217" 
d="M150 0h-90v695h90v-695z" />
    <glyph glyph-name="uni0407" unicode="&#x407;" horiz-adv-x="217" 
d="M151 0h-90v695h90v-695zM228 846.5q14 -13.5 14 -33.5t-14 -33.5t-34 -13.5t-34 13.5t-14 33.5t14 33.5t34 13.5t34 -13.5zM50 846.5q14 -13.5 14 -33.5t-14 -33.5t-34 -13.5t-34 13.5t-14 33.5t14 33.5t34 13.5t34 -13.5z" />
    <glyph glyph-name="uni0408" unicode="&#x408;" horiz-adv-x="437" 
d="M98 3.5q-34 15.5 -55.5 42t-31.5 61.5t-10 75h88q0 -24 4 -44.5t14 -35.5t28 -23.5t46 -8.5q62 0 86 32t24 89v504h92v-504q0 -98 -51.5 -150.5t-151.5 -52.5q-48 0 -82 15.5z" />
    <glyph glyph-name="uni0409" unicode="&#x409;" horiz-adv-x="992" 
d="M749 82q135 0 135 125q0 63 -31 91.5t-99 28.5h-203v-245h198zM262 613l-33 -374q-6 -67 -19 -113t-30 -75q-16 -26 -42 -44.5t-53 -18.5q-22 0 -46 12v62q23 0 40.5 5.5t26.5 19.5q12 17 22 53t15 99l37 456h370v-285h208q105 0 160 -51.5t55 -151.5t-57.5 -153.5
t-162.5 -53.5h-293v613h-198z" />
    <glyph glyph-name="uni040A" unicode="&#x40a;" horiz-adv-x="1017" 
d="M494 695h90v-285h197q105 0 160 -51.5t55 -151.5t-57.5 -153.5t-162.5 -53.5h-282v327h-344v-327h-90v695h90v-285h344v285zM772 82q135 0 135 125q0 63 -31 91.5t-99 28.5h-194v-245h189z" />
    <glyph glyph-name="uni040B" unicode="&#x40b;" horiz-adv-x="807" 
d="M340 399l120 35q46 13 91 13q49 0 90.5 -16t71.5 -46.5t47 -74.5t17 -101v-209h-92v209q0 81 -41 120.5t-107 39.5q-32 0 -73 -11l-124 -35v-323h-92v613h-229v82h551l-26 -82h-204v-214z" />
    <glyph glyph-name="uni040C" unicode="&#x40c;" horiz-adv-x="596" 
d="M302 860h77v-25l-84 -98h-69zM150 391h70l199 304h103l-216 -337l258 -358h-108l-234 325h-72v-325h-90v695h90v-304z" />
    <glyph glyph-name="uni040E" unicode="&#x40e;" horiz-adv-x="604" 
d="M250.5 230q-17.5 18 -28.5 41l-198 413l89 24l190 -391q4 -8 11.5 -17t19.5 -9l184 417l84 -24l-268 -597q-19 -42 -47.5 -70.5t-70.5 -28.5q-12 0 -27 3l-41 9v63h34q23 0 38.5 6.5t25.5 29.5l46 104q-24 9 -41.5 27zM262 746q-25 8 -44 23.5t-30 38.5t-11 52h51
q0 -17 7.5 -29t20 -20t28 -12t31.5 -4q15 0 30.5 3.5t28 11.5t20.5 20.5t8 29.5h51q0 -30 -11.5 -52.5t-30.5 -38t-44 -23.5t-52 -8q-28 0 -53 8z" />
    <glyph glyph-name="uni040F" unicode="&#x40f;" horiz-adv-x="632" 
d="M356 0v-142h-82v142h-232v695h92v-613h362v613h93v-695h-233z" />
    <glyph glyph-name="uni0410" unicode="&#x410;" 
d="M114 0h-96l259 695h112l272 -695h-94l-81 210h-295zM457 285l-95 244l-28 101l-27 -101l-90 -244h240z" />
    <glyph glyph-name="uni0411" unicode="&#x411;" horiz-adv-x="607" 
d="M564.5 112q-15.5 -39 -45 -64t-71 -36.5t-92.5 -11.5h-296v695h451l-26 -82h-335v-203h211q104 0 161.5 -47.5t57.5 -156.5q0 -55 -15.5 -94zM460.5 301.5q-33.5 26.5 -96.5 26.5h-214v-246h209q29 0 54 6.5t43 21.5t28 38.5t10 57.5q0 69 -33.5 95.5z" />
    <glyph glyph-name="uni0412" unicode="&#x412;" horiz-adv-x="621" 
d="M364.5 410q23.5 7 42 20.5t29.5 34.5t11 50q0 57 -28.5 77.5t-76.5 20.5h-192v-210h167q24 0 47.5 7zM150 82h214q29 0 51.5 5t38.5 18t24 36t8 58q0 60 -34 91t-94 31h-208v-239zM553.5 303.5q30.5 -40.5 30.5 -105.5q0 -53 -18.5 -90.5t-50 -61.5t-73 -35t-88.5 -11
h-294v695h279q43 0 80 -10t64 -32t42.5 -56t15.5 -82q0 -87 -68 -140v-6q50 -25 80.5 -65.5z" />
    <glyph glyph-name="uni0413" unicode="&#x413;" horiz-adv-x="505" 
d="M60 695h445l-26 -82h-329v-613h-90v695z" />
    <glyph glyph-name="uni0414" unicode="&#x414;" horiz-adv-x="705" 
d="M33 82q21 0 36.5 4t27.5 15.5t22 31t21 50.5q28 76 33.5 155t5.5 166v191h414v-613h65v-225h-83v143h-459v-143h-83v225zM504 613h-239v-109q0 -54 -2 -108.5t-9.5 -108t-22.5 -105.5t-41 -100h314v531z" />
    <glyph glyph-name="uni0415" unicode="&#x415;" horiz-adv-x="582" 
d="M60 0v695h500l-26 -82h-384v-203h344v-83h-344v-245h407v-82h-497z" />
    <glyph glyph-name="uni0416" unicode="&#x416;" horiz-adv-x="921" 
d="M508 0h-95v321h-39q-16 0 -32 -4.5t-25 -20.5l-134 -247q-14 -26 -37 -43.5t-53 -17.5q-22 0 -46 12v70q23 0 38 5t22 18l123 232q9 17 22.5 28t28.5 19l-228 323h114l213 -301h33v314h95v-314h33l213 301h114l-228 -323q15 -8 28.5 -19t22.5 -28l123 -232q7 -13 23 -18
t37 -5v-70q-24 -12 -46 -12q-30 0 -53 17.5t-37 43.5l-134 247q-9 16 -25 20.5t-32 4.5h-39v-321z" />
    <glyph glyph-name="uni0417" unicode="&#x417;" horiz-adv-x="515" 
d="M458.5 98.5q-18.5 -38.5 -51 -63.5t-76 -36t-94.5 -11q-68 0 -117 23t-87 81l71 47q26 -38 59 -53.5t80 -15.5q64 0 105 28t41 96q0 34 -12 57.5t-33 38.5t-50 22t-63 7h-52v80h55q33 0 57 11t40.5 28t24.5 38t8 41q0 54 -32.5 80.5t-82.5 26.5q-45 0 -78 -16.5
t-57 -51.5l-71 47q38 58 89.5 81t120.5 23q43 0 79.5 -13t63.5 -37t42 -59t15 -79q0 -20 -5.5 -43.5t-15.5 -45.5t-23.5 -40.5t-29.5 -28.5q21 -8 39 -24.5t31 -39.5t20.5 -50t7.5 -54q0 -56 -18.5 -94.5z" />
    <glyph glyph-name="uni0418" unicode="&#x418;" horiz-adv-x="667" 
d="M516 549l-365 -549h-91v695h90v-550l366 550h90v-695h-90v549z" />
    <glyph glyph-name="uni0419" unicode="&#x419;" horiz-adv-x="637" 
d="M516 549l-365 -549h-91v695h90v-550l366 550h90v-695h-90v549zM278 746q-25 8 -44 23.5t-30 38.5t-11 52h51q0 -17 7.5 -29t20 -20t28 -12t31.5 -4q15 0 30.5 3.5t28 11.5t20.5 20.5t8 29.5h51q0 -30 -11.5 -52.5t-30.5 -38t-44 -23.5t-52 -8q-28 0 -53 8z" />
    <glyph glyph-name="uni041A" unicode="&#x41a;" horiz-adv-x="596" 
d="M150 391h70l199 304h103l-216 -337l258 -358h-108l-234 325h-72v-325h-90v695h90v-304z" />
    <glyph glyph-name="uni041B" unicode="&#x41b;" horiz-adv-x="612" 
d="M26 0v70q29 0 47.5 7t29.5 26t17 52t10 84l37 456h384v-695h-90v613h-212l-33 -374q-3 -32 -10.5 -75.5t-23.5 -82.5t-42.5 -66t-67.5 -27q-22 0 -46 12z" />
    <glyph glyph-name="uni041C" unicode="&#x41c;" horiz-adv-x="789" 
d="M61 695h141l197 -492l204 492h126v-695h-90v581l-200 -499h-86l-202 511v-593h-90v695z" />
    <glyph glyph-name="uni041D" unicode="&#x41d;" horiz-adv-x="667" 
d="M150 0h-90v695h90v-285h366v285h90v-695h-90v327h-366v-327z" />
    <glyph glyph-name="uni041E" unicode="&#x41e;" horiz-adv-x="732" 
d="M217 16q-62 28 -101 76.5t-57.5 114.5t-18.5 141v27q0 71 22.5 132t64.5 105.5t102.5 69.5t136.5 25t136.5 -25t102.5 -69.5t64.5 -105.5t22.5 -132v-27q0 -75 -18.5 -141t-57.5 -114.5t-101 -76.5t-149 -28t-149 28zM267 604q-43 -20 -72.5 -54t-45 -80t-15.5 -97v-23
q0 -57 13.5 -107.5t41.5 -89t71.5 -61t103.5 -22.5q62 0 106.5 21.5t73 59t41.5 88.5t13 111v23q0 51 -15.5 97t-45 80t-73 54t-98.5 20q-56 0 -99 -20z" />
    <glyph glyph-name="uni041F" unicode="&#x41f;" horiz-adv-x="645" 
d="M494 613h-344v-613h-90v695h524v-695h-90v613z" />
    <glyph glyph-name="uni0420" unicode="&#x420;" horiz-adv-x="586" 
d="M60 695h321q50 0 88 -16.5t63 -45t37.5 -68.5t12.5 -86q0 -47 -11.5 -86.5t-36 -68.5t-62.5 -45.5t-91 -16.5h-231v-262h-90v695zM150 345h215q68 0 97.5 37.5t29.5 96.5q0 58 -32.5 96t-94.5 38h-215v-268z" />
    <glyph glyph-name="uni0421" unicode="&#x421;" horiz-adv-x="614" 
d="M140.5 250.5q6.5 -49.5 29 -90t66 -65.5t118.5 -25q45 0 86.5 16.5t73.5 50.5l63 -59q-44 -47 -102 -68.5t-121 -21.5q-89 0 -149 27.5t-96.5 75.5t-52.5 114t-16 143v37q0 76 19.5 135.5t58.5 101t98 63.5t138 22q61 0 119.5 -20.5t101.5 -64.5l-61 -61
q-31 32 -73.5 47.5t-86.5 15.5q-66 0 -108.5 -21.5t-67.5 -56t-34.5 -77.5t-9.5 -86v-33q0 -50 6.5 -99.5z" />
    <glyph glyph-name="uni0422" unicode="&#x422;" horiz-adv-x="570" 
d="M331 0h-90v613h-232v82h553l-26 -82h-205v-613z" />
    <glyph glyph-name="uni0423" unicode="&#x423;" horiz-adv-x="610" 
d="M250.5 230q-17.5 18 -28.5 41l-198 413l89 24l190 -391q4 -8 11.5 -17t19.5 -9l184 417l84 -24l-268 -597q-19 -42 -47.5 -70.5t-70.5 -28.5q-12 0 -27 3l-41 9v63h34q23 0 38.5 6.5t25.5 29.5l46 104q-24 9 -41.5 27z" />
    <glyph glyph-name="uni0424" unicode="&#x424;" horiz-adv-x="754" 
d="M710 238q-17 -48 -48 -80.5t-74.5 -48.5t-95.5 -16q-17 0 -35 4t-35 10v-107h-90v107q-17 -6 -34.5 -10t-34.5 -4q-53 0 -96 16t-74.5 48.5t-48.5 80.5t-17 111v20q0 63 17 111t48.5 80t74.5 48t96 16q17 0 34.5 -4t34.5 -10v97h90v-97q17 6 35 10t35 4q52 0 95.5 -16
t74.5 -48t48 -80t17 -111v-20q0 -63 -17 -111zM121 279q10 -31 29 -54.5t46.5 -37t64.5 -13.5q19 0 37.5 3.5t33.5 11.5v338q-32 15 -73 15q-36 0 -63.5 -13.5t-46.5 -36.5t-29 -54t-10 -66v-26q1 -36 11 -67zM456.5 177.5q18.5 -3.5 37.5 -3.5q38 0 66.5 14.5t47 38.5
t27.5 55t9 64v26q0 35 -9.5 66t-28.5 54t-46.5 36.5t-63.5 13.5q-41 0 -74 -15v-338q16 -8 34.5 -11.5z" />
    <glyph glyph-name="uni0425" unicode="&#x425;" horiz-adv-x="723" 
d="M148 0h-110l269 361l-226 322l89 24l137 -191l55 -89l56 89l136 191l89 -24l-226 -322l269 -361h-110l-180 246l-34 54l-34 -54z" />
    <glyph glyph-name="uni0426" unicode="&#x426;" horiz-adv-x="683" 
d="M636 82v-225h-82v143h-527v695h90v-613h363v613h90v-613h66z" />
    <glyph glyph-name="uni0427" unicode="&#x427;" horiz-adv-x="595" 
d="M534 695v-695h-90v302q-20 -13 -39.5 -25.5t-42 -22t-50.5 -15.5t-66 -6q-56 0 -100 16.5t-75 46.5t-47 71t-16 90v238h91v-237q0 -31 10.5 -58.5t29 -48t45.5 -32.5t60 -12q52 0 101.5 19.5t98.5 62.5v306h90z" />
    <glyph glyph-name="uni0428" unicode="&#x428;" horiz-adv-x="852" 
d="M791 0h-731v695h90v-613h231v589h90v-589h230v613h90v-695z" />
    <glyph glyph-name="uni0429" unicode="&#x429;" horiz-adv-x="870" 
d="M757 82h63v-225h-80v143h-714v695h90v-613h231v589h90v-589h230v613h90v-613z" />
    <glyph glyph-name="uni042A" unicode="&#x42a;" horiz-adv-x="716" 
d="M650 54.5q-55 -54.5 -159 -54.5h-299v613h-143l-26 82h259v-285h213q106 0 158 -50.5t52 -150.5t-55 -154.5zM587 299.5q-28 27.5 -97 27.5h-208v-245h204q68 0 98.5 32t30.5 95t-28 90.5z" />
    <glyph glyph-name="uni042B" unicode="&#x42b;" horiz-adv-x="817" 
d="M522 51q-55 -51 -160 -51h-302v695h90v-294h217q210 0 210 -199q0 -100 -55 -151zM459 292.5q-28 26.5 -96 26.5h-213v-237h208q68 0 98.5 29t30.5 92t-28 89.5zM756 0h-90v695h90v-695z" />
    <glyph glyph-name="uni042C" unicode="&#x42c;" horiz-adv-x="577" 
d="M515.5 53.5q-57.5 -53.5 -162.5 -53.5h-293v695h90v-285h208q105 0 160 -51.5t55 -151.5t-57.5 -153.5zM453 298.5q-31 28.5 -99 28.5h-204v-245h199q135 0 135 125q0 63 -31 91.5z" />
    <glyph glyph-name="uni042D" unicode="&#x42d;" horiz-adv-x="608" 
d="M154.5 694.5q57.5 12.5 111.5 12.5q150 0 226.5 -82t76.5 -240v-37q0 -77 -15.5 -143t-52.5 -114t-97 -75.5t-148 -27.5q-61 0 -118 15.5t-100 59.5q8 9 19 20l20 20t23 24q34 -32 72.5 -44.5t83.5 -12.5q59 0 99 17.5t65 49.5t36.5 78t14.5 103h-241v82h241
q-3 50 -15 91.5t-36 71t-62 45.5t-92 16q-40 0 -82.5 -9.5t-76.5 -34.5l-52 69q42 33 99.5 45.5z" />
    <glyph glyph-name="uni042E" unicode="&#x42e;" horiz-adv-x="905" 
d="M769 368q0 54 -11.5 100.5t-37 81t-65.5 54.5t-96 20q-58 0 -97 -21.5t-62.5 -57.5t-33.5 -82.5t-10 -95.5v-18q0 -56 8.5 -107t31.5 -89t62.5 -60.5t101.5 -22.5q65 0 105.5 23.5t63.5 62.5t31.5 89.5t8.5 103.5v19zM153 302v-302h-93v695h93v-312h113q4 74 23 134
t54 102t88 65t127 23q79 0 136 -26.5t94 -72t54.5 -107.5t17.5 -133v-19q0 -80 -16 -146t-52 -114t-93.5 -74.5t-139.5 -26.5q-78 0 -131 23.5t-87 65.5t-51 99.5t-22 125.5h-115z" />
    <glyph glyph-name="uni042F" unicode="&#x42f;" horiz-adv-x="674" 
d="M139 6.5q-23 -18.5 -52 -18.5q-10 0 -23 3t-24 9v62q20 0 36.5 4.5t33.5 27.5l154 213q-91 5 -141 53t-50 141q0 50 16 86.5t44.5 60.5t68 35.5t86.5 11.5h325v-695h-92v306h-109q-17 0 -34.5 -6.5t-28.5 -20.5l-168 -228q-19 -26 -42 -44.5zM291 613q-57 0 -92.5 -26
t-35.5 -86q0 -32 8.5 -54t25 -35t40.5 -18.5t54 -5.5h230v225h-230z" />
    <glyph glyph-name="uni0430" unicode="&#x430;" horiz-adv-x="536" 
d="M250.5 69.5q23.5 7.5 48 19t47 23.5t38.5 21v87h-187q-16 0 -30 -6.5t-24 -17t-16 -25t-6 -29.5q0 -18 7.5 -32.5t20 -25t28 -16.5t32.5 -6q18 0 41.5 7.5zM346.5 504q36.5 -12 64 -35t43.5 -57t16 -79v-218q0 -35 6.5 -60t22.5 -55h-92q-8 11 -12.5 28t-5.5 31
q-41 -30 -90.5 -50.5t-100.5 -20.5q-34 0 -63.5 11t-51.5 31.5t-34.5 49t-12.5 63.5q0 33 13 60.5t35 47.5t51 31t61 11h188v46q0 54 -32.5 78.5t-83.5 25.5q-46 0 -79 -11t-72 -34l-37 64q24 14 45.5 24t44 17t46.5 10t52 3q42 0 78.5 -12z" />
    <glyph glyph-name="uni0431" unicode="&#x431;" horiz-adv-x="554" 
d="M416.5 326q-7.5 33 -24 57t-44.5 38t-68 14q-36 0 -63.5 -14t-46.5 -38t-29 -55t-10 -65v-4q0 -39 7.5 -74.5t24.5 -63t45.5 -43.5t69.5 -16q37 0 64.5 16t45.5 42.5t27 60.5t9 71v4q0 37 -7.5 70zM49 345q1 32 3 63t6 59t11 50q29 88 85.5 128.5t141.5 44.5
q36 2 63.5 6.5t46.5 28.5l63 -50q-15 -24 -34 -36.5t-40.5 -18t-45 -7t-47.5 -3.5q-79 -7 -124 -50t-46 -136q9 16 25 31t36 25.5t43 17t45 6.5q55 0 96.5 -19t70 -52.5t43 -79t14.5 -98.5q0 -54 -14.5 -102.5t-43 -85t-71 -58t-99.5 -21.5q-61 0 -104.5 23.5t-71 63
t-40.5 92t-13 110.5v7q0 29 1 61z" />
    <glyph glyph-name="uni0432" unicode="&#x432;" horiz-adv-x="510" 
d="M309.5 310.5q14.5 3.5 26 11t19 19.5t7.5 29t-7 29.5t-18 20t-25 11t-28 3.5h-138v-127h135q14 0 28.5 3.5zM146 74h145q16 0 33 5t30 14.5t21.5 24.5t8.5 35v4q0 17 -8 31.5t-21 25t-29 16.5t-32 6h-148v-162zM454 222q16 -31 16 -65v-4q0 -38 -15.5 -66.5t-41 -47.5
t-58 -29t-66.5 -10h-229v504h225q31 0 60.5 -8t52.5 -24.5t36.5 -41.5t13.5 -60q0 -29 -14.5 -52t-34.5 -42q39 -23 55 -54z" />
    <glyph glyph-name="uni0433" unicode="&#x433;" horiz-adv-x="366" 
d="M146 0h-86v504h306l-22 -70h-198v-434z" />
    <glyph glyph-name="uni0434" unicode="&#x434;" horiz-adv-x="607" 
d="M34 74q44 0 69 28.5t37 72.5t15 98t3 105v126h345v-430h56v-186h-71v112h-382v-112h-72v186zM423 74v360h-185v-56q0 -64 -2.5 -111t-9 -82t-17 -61.5t-25.5 -49.5h239z" />
    <glyph glyph-name="uni0435" unicode="&#x435;" horiz-adv-x="558" 
d="M168.5 102q40.5 -40 122.5 -40q40 0 68 16.5t50 45.5l76 -31q-29 -49 -81 -77t-118 -28q-67 0 -113.5 18.5t-75.5 52t-42 81t-13 105.5v11q0 25 1 48.5t6 46.5t16 45.5t31 44.5q34 38 81 56.5t97 18.5q56 0 99.5 -18t73 -50t44.5 -76t15 -97v-45h-378q0 -88 40.5 -128z
M420 300v9q0 25 -10 49t-29 42.5t-46 30t-61 11.5q-32 0 -59 -11t-46.5 -29.5t-30 -42.5t-10.5 -50v-9h292z" />
    <glyph glyph-name="uni0436" unicode="&#x436;" horiz-adv-x="740" 
d="M327 231h-23l-115 -180q-17 -26 -40.5 -44.5t-52.5 -18.5q-20 0 -44 12v62q18 0 35.5 6.5t26.5 20.5l111 169l-168 246h98l147 -215h25v215h86v-215h24l148 215h97l-168 -246l111 -169q9 -14 26.5 -20.5t36.5 -6.5v-62q-24 -12 -45 -12q-29 0 -52 18.5t-40 44.5l-115 180
h-23v-231h-86v231z" />
    <glyph glyph-name="uni0437" unicode="&#x437;" horiz-adv-x="432" 
d="M108.5 499q45.5 17 93.5 17q33 0 64 -8.5t55 -25.5t39 -44.5t15 -64.5q0 -22 -6 -39.5t-14.5 -30.5t-18.5 -21.5t-19 -13.5q33 -15 55 -45t22 -75q0 -44 -15 -74.5t-41 -49.5t-60 -27.5t-73 -8.5q-48 0 -94 18t-75 55l57 47q9 -9 22 -17.5t28 -15t31 -10t31 -3.5
q21 0 40.5 2.5t34.5 11.5t24.5 26.5t9.5 47.5q0 25 -10 40t-25.5 23.5t-35 11t-38.5 2.5h-45v67h50q47 0 68 22.5t21 56.5q0 19 -8.5 32t-22 21t-31 12t-36.5 4q-25 0 -52 -7.5t-44 -32.5l-70 42q28 38 73.5 55z" />
    <glyph glyph-name="uni0438" unicode="&#x438;" horiz-adv-x="536" 
d="M389 378l-235 -378h-94v491l86 25v-397l236 385h93v-504h-86v378z" />
    <glyph glyph-name="uni0439" unicode="&#x439;" horiz-adv-x="530" 
d="M384 378l-235 -378h-94v491l86 25v-397l236 385h93v-504h-86v378zM220 593q-25 8 -44 23.5t-30 38.5t-11 52h51q0 -17 7.5 -29t20 -20t28 -12t31.5 -4q15 0 30.5 3.5t28 11.5t20.5 20.5t8 29.5h51q0 -30 -11.5 -52.5t-30.5 -38t-44 -23.5t-52 -8q-28 0 -53 8z" />
    <glyph glyph-name="uni043A" unicode="&#x43a;" horiz-adv-x="472" 
d="M145 288h42l142 216h88l-158 -245l112 -171q9 -14 26.5 -20t36.5 -6v-62q-24 -12 -42 -12q-27 0 -47.5 18.5t-37.5 44.5l-121 180h-41v-231h-86v492l86 24v-228z" />
    <glyph glyph-name="uni043B" unicode="&#x43b;" horiz-adv-x="540" 
d="M114.5 137.5q11.5 35.5 16.5 96.5l21 270h327v-504h-86v434h-168l-15 -191q-5 -68 -18 -115t-32 -77q-17 -26 -40 -44.5t-50 -18.5q-18 0 -42 12v62q19 0 35.5 4t26.5 18q13 18 24.5 53.5z" />
    <glyph glyph-name="uni043C" unicode="&#x43c;" horiz-adv-x="656" 
d="M595 0h-86v399l-144 -325h-72l-147 325v-399h-86v504h135l134 -313l146 313h120v-504z" />
    <glyph glyph-name="uni043D" unicode="&#x43d;" horiz-adv-x="529" 
d="M468 0h-86v236h-236v-236h-86v492l86 24v-209h236v185l86 24v-516z" />
    <glyph glyph-name="uni043E" unicode="&#x43e;" horiz-adv-x="552" 
d="M437 272q0 73 -38 119q-20 24 -50 37.5t-69 13.5q-38 0 -67 -12.5t-49 -35.5q-40 -46 -40 -123v-23q0 -42 9 -78t31 -62q18 -22 46.5 -34t69.5 -12q38 0 65 11t46 31q26 26 36 65t10 83v20zM374 5.5q-44 -17.5 -95 -17.5q-49 0 -94 18t-80 54q-38 38 -49.5 88t-11.5 104
v19q1 52 13 93t51 82q35 36 78 53t93 17t92.5 -16.5t77.5 -51.5q36 -37 52 -80t16 -95v-21q0 -54 -12 -102t-52 -90q-35 -37 -79 -54.5z" />
    <glyph glyph-name="uni043F" unicode="&#x43f;" horiz-adv-x="519" 
d="M146 0h-86v504h398v-504h-86v434h-226v-434z" />
    <glyph glyph-name="uni0440" unicode="&#x440;" horiz-adv-x="544" 
d="M402.5 490q45.5 -26 73.5 -74q18 -31 23.5 -67t5.5 -77v-64q0 -47 -13 -87.5t-38.5 -70t-63 -46t-86.5 -16.5q-27 0 -51 8.5t-43.5 19.5t-33 22t-19.5 17v-249h-86v574q0 53 -23 99l79 37q8 -14 14 -28t10 -31h6q23 25 59 42t78 17q63 0 108.5 -26zM210.5 423.5
q-33.5 -18.5 -53.5 -41.5v-241q39 -43 78.5 -61t68.5 -18q33 0 55 11.5t35.5 31.5t19 46.5t5.5 57.5v63q0 30 -4.5 57.5t-12.5 43.5q-14 31 -46 50t-64 19q-48 0 -81.5 -18.5z" />
    <glyph glyph-name="uni0441" unicode="&#x441;" horiz-adv-x="484" 
d="M379 500q44 -16 76 -48l-53 -52q-22 19 -48.5 30.5t-67.5 11.5q-34 0 -63 -11.5t-50 -34.5q-22 -24 -33 -58t-11 -69v-16q0 -44 12 -84.5t40 -67.5q19 -18 44.5 -28.5t60.5 -10.5q30 0 63.5 10t53.5 34l53 -51q-33 -35 -77.5 -51t-92.5 -16q-40 0 -83.5 12t-75.5 38
q-27 22 -44.5 50.5t-25.5 66.5q-5 24 -6.5 48t-1.5 48v19q0 24 1.5 46t7 42.5t16 41t29.5 42.5q16 19 38 33t47 23t51.5 13.5t50.5 4.5q45 0 89 -16z" />
    <glyph glyph-name="uni0442" unicode="&#x442;" horiz-adv-x="437" 
d="M263 0h-86v434h-163v70h411l-22 -70h-140v-434z" />
    <glyph glyph-name="uni0443" unicode="&#x443;" horiz-adv-x="542" 
d="M263.5 -178.5q-28.5 -27.5 -70.5 -27.5q-14 0 -29.5 2.5t-38.5 9.5v63h42q23 0 39 6.5t24 29.5l34 98q-29 7 -49.5 27t-31.5 48l-158 414l83 24l156 -408q4 -10 9.5 -16t16.5 -6h4l155 430l83 -24l-223 -599q-17 -44 -45.5 -71.5z" />
    <glyph glyph-name="uni0444" unicode="&#x444;" horiz-adv-x="789" 
d="M489 505q33 11 63 11q59 0 96.5 -24.5t58.5 -63.5t28.5 -88.5t7.5 -99.5q0 -44 -8 -88.5t-28.5 -81t-54.5 -59.5t-85 -23q-48 0 -75 9.5t-53 26.5v-218h-86v218q-26 -17 -53 -26.5t-75 -9.5q-51 0 -85 23t-54.5 59.5t-28.5 81t-8 88.5q0 50 7.5 99.5t28.5 88.5t58.5 63.5
t96.5 24.5q30 0 63 -11t51 -31v209l85 24v-233q17 20 50 31zM304 429.5q-30 12.5 -61 12.5q-40 0 -62 -19.5t-32 -49.5t-12 -65.5t-2 -67.5q0 -26 2.5 -57t11.5 -58t27 -45t50 -18q10 0 26 2t34 6.5t35.5 11t31.5 16.5v296q-19 23 -49 35.5zM470.5 81.5q17.5 -6.5 35.5 -11
t34 -6.5t26 -2q31 0 49.5 18t27.5 45t11.5 58t2.5 57q0 32 -2 67.5t-12 65.5t-32 49.5t-62 19.5q-31 0 -61 -12.5t-49 -35.5v-296q14 -10 31.5 -16.5z" />
    <glyph glyph-name="uni0445" unicode="&#x445;" horiz-adv-x="480" 
d="M113 0h-98l182 266l-155 226l81 24l120 -185l120 185l81 -24l-155 -226l182 -266h-98l-130 195z" />
    <glyph glyph-name="uni0446" unicode="&#x446;" horiz-adv-x="546" 
d="M155 516v-446h236v421l86 25v-446h54v-181h-70v111h-392v491z" />
    <glyph glyph-name="uni0447" unicode="&#x447;" horiz-adv-x="500" 
d="M124 516v-156q0 -22 4.5 -41.5t15.5 -34.5t28.5 -23.5t44.5 -8.5q29 0 66 18.5t70 57.5v163l86 25v-516h-86v240q-21 -21 -54.5 -41.5t-81.5 -20.5q-86 0 -132.5 44.5t-46.5 133.5v135z" />
    <glyph glyph-name="uni0448" unicode="&#x448;" horiz-adv-x="767" 
d="M426 74h194v417l86 25v-516h-646v491l86 25v-442h194v403l86 25v-428z" />
    <glyph glyph-name="uni0449" unicode="&#x449;" horiz-adv-x="789" 
d="M147 516v-442h194v403l86 25v-428h194v417l86 25v-442h56v-186h-71v112h-631v491z" />
    <glyph glyph-name="uni044A" unicode="&#x44a;" horiz-adv-x="551" 
d="M524 82q-14 -29 -38.5 -47t-57.5 -26.5t-70 -8.5h-233v434h-90l-23 70h199v-197h151q39 0 71 -8t55.5 -26.5t36.5 -48t13 -71.5t-14 -71zM427.5 216.5q-24.5 18.5 -65.5 18.5h-151v-161h147q21 0 38 3.5t29.5 12.5t19.5 24t7 38q0 46 -24.5 64.5z" />
    <glyph glyph-name="uni044B" unicode="&#x44b;" horiz-adv-x="684" 
d="M457.5 81q-14.5 -29 -39.5 -47t-58 -26t-70 -8h-230v491l86 25v-206h148q39 0 71.5 -9t56 -28t37 -49t13.5 -72t-14.5 -71zM360 215.5q-26 20.5 -66 20.5h-148v-162h144q21 0 38.5 3.5t30 12.5t20 24t7.5 38q0 43 -26 63.5zM623 0h-86v491l86 25v-516z" />
    <glyph glyph-name="uni044C" unicode="&#x44c;" horiz-adv-x="498" 
d="M358 218q-26 18 -68 18h-144v-162h141q20 0 38 3.5t31 12.5t20.5 24.5t7.5 39.5q0 46 -26 64zM454.5 82q-14.5 -29 -39.5 -47t-58 -26.5t-70 -8.5h-227v491l86 25v-209h144q39 0 72 -8t56.5 -26.5t37 -48t13.5 -71.5t-14.5 -71z" />
    <glyph glyph-name="uni044D" unicode="&#x44d;" horiz-adv-x="461" 
d="M65 477q17 13 37 21.5t43.5 13t53.5 4.5q57 0 98 -21.5t68 -57.5t39.5 -84t12.5 -100q0 -56 -12 -104t-38 -84t-68 -56.5t-102 -20.5q-51 0 -90 16.5t-75 54.5l57 54q18 -22 43 -36.5t63 -14.5q36 0 63 13t44.5 35t26 51t8.5 62h-178v70h178q0 30 -10.5 57t-29.5 47.5
t-44.5 32.5t-56.5 12q-29 0 -56 -10t-50 -41l-59 56q17 17 34 30z" />
    <glyph glyph-name="uni044E" unicode="&#x44e;" horiz-adv-x="727" 
d="M603 271q0 36 -7 67.5t-23.5 54.5t-43 36t-64.5 13q-39 0 -65.5 -13t-43 -36t-24 -54.5t-7.5 -68.5v-18q0 -40 5 -74.5t20 -60t42.5 -40.5t72.5 -15t72 15.5t41.5 41.5t19.5 60.5t5 72.5v19zM145 223v-223h-86v491l86 25v-223h104q3 48 17.5 89t41 71t65.5 46.5t91 16.5
q53 0 93.5 -18.5t68 -51.5t41.5 -78t14 -97v-20q0 -56 -11.5 -104t-37.5 -83.5t-67 -55.5t-101 -20q-56 0 -95.5 18t-65 49.5t-38.5 74.5t-16 93h-104z" />
    <glyph glyph-name="uni044F" unicode="&#x44f;" horiz-adv-x="531" 
d="M98 252.5q-36 38.5 -36 101.5q0 37 13 65t35.5 47t53.5 28.5t66 9.5h240v-504h-86v197h-72q-11 0 -21 -4t-18 -15l-86 -127q-17 -26 -43.5 -44.5t-57.5 -18.5q-11 0 -21.5 3.5t-21.5 8.5v62q18 0 40 6t32 20l85 118q-66 8 -102 46.5zM234 434q-37 0 -61 -20t-24 -60
q0 -42 23 -64.5t62 -22.5h150v167h-150z" />
    <glyph glyph-name="uni0451" unicode="&#x451;" horiz-adv-x="538" 
d="M168.5 102q40.5 -40 122.5 -40q40 0 68 16.5t50 45.5l76 -31q-29 -49 -81 -77t-118 -28q-67 0 -113.5 18.5t-75.5 52t-42 81t-13 105.5v11q0 25 1 48.5t6 46.5t16 45.5t31 44.5q34 38 81 56.5t97 18.5q56 0 99.5 -18t73 -50t44.5 -76t15 -97v-45h-378q0 -88 40.5 -128z
M420 300v9q0 25 -10 49t-29 42.5t-46 30t-61 11.5q-32 0 -59 -11t-46.5 -29.5t-30 -42.5t-10.5 -50v-9h292zM397 693.5q14 -13.5 14 -33.5t-14 -33.5t-34 -13.5t-34 13.5t-14 33.5t14 33.5t34 13.5t34 -13.5zM219 693.5q14 -13.5 14 -33.5t-14 -33.5t-34 -13.5t-34 13.5
t-14 33.5t14 33.5t34 13.5t34 -13.5z" />
    <glyph glyph-name="uni0452" unicode="&#x452;" horiz-adv-x="532" 
d="M477 -124.5q-10 -24.5 -27 -42.5t-40.5 -28.5t-50.5 -10.5q-14 0 -29 3l-41 9v63h41q29 0 50 15.5t21 44.5v397q0 47 -26 75.5t-74 28.5q-61 0 -94.5 -30.5t-45.5 -76.5v-323h-86v565h-63v56h63v62l86 24v-86h162l-15 -56h-147v-123q31 38 68.5 50t74.5 12q42 0 76 -14.5
t57.5 -40t36.5 -60t13 -74.5v-386q0 -29 -10 -53.5z" />
    <glyph glyph-name="uni0453" unicode="&#x453;" horiz-adv-x="386" 
d="M143 0h-86v504h306l-22 -70h-198v-434zM216 707h72v-25l-67 -97h-57z" />
    <glyph glyph-name="uni0454" unicode="&#x454;" horiz-adv-x="462" 
d="M315.5 434.5q-26.5 10.5 -55.5 10.5q-31 0 -57 -13t-45 -34.5t-29.5 -49t-10.5 -56.5h178v-70h-178q0 -33 8.5 -63t26 -52.5t44.5 -35.5t63 -13q38 0 62.5 16t42.5 37l57 -53q-35 -38 -73 -54t-89 -16q-86 0 -141 42.5t-72 126.5q-5 24 -7 47.5t-2 47.5q0 27 2 50t7 46
q20 76 76.5 122t136.5 46q30 0 53 -4.5t41.5 -13t35 -21.5t33.5 -30l-56 -52q-25 29 -51.5 39.5z" />
    <glyph glyph-name="uni0455" unicode="&#x455;" horiz-adv-x="474" 
d="M340 497q45 -19 77 -54l-52 -51q-17 18 -45 34t-75 16q-16 0 -34.5 -2.5t-35 -10t-27.5 -21.5t-11 -36q0 -25 22.5 -38.5t56.5 -24t73 -20t73 -25t56.5 -41t22.5 -67.5q0 -78 -51 -123t-150 -45q-75 0 -126 25.5t-82 80.5l62 39q13 -15 27 -28t31 -22.5t39.5 -15
t53.5 -5.5q16 0 35.5 3t36 12t27.5 25t11 41q0 30 -22.5 45t-56 24.5t-72.5 17.5t-72.5 24t-56 44.5t-22.5 78.5q0 39 19 65.5t47.5 43t62.5 23.5t65 7q48 0 93 -19z" />
    <glyph glyph-name="uni0456" unicode="&#x456;" horiz-adv-x="154" 
 />
    <glyph glyph-name="uni0457" unicode="&#x457;" horiz-adv-x="293" 
d="M272 693.5q14 -13.5 14 -33.5t-14 -33.5t-34 -13.5t-34 13.5t-14 33.5t14 33.5t34 13.5t34 -13.5zM94 693.5q14 -13.5 14 -33.5t-14 -33.5t-34 -13.5t-34 13.5t-14 33.5t14 33.5t34 13.5t34 -13.5zM105 504h86v-504h-86v504z" />
    <glyph glyph-name="uni0458" unicode="&#x458;" horiz-adv-x="162" 
 />
    <glyph glyph-name="uni0459" unicode="&#x459;" horiz-adv-x="826" 
d="M398 434h-161l-15 -191q-5 -68 -18 -115t-32 -77q-17 -26 -40 -44.5t-50 -18.5q-18 0 -42 12v62q19 0 35.5 4t26.5 18q13 18 24.5 53.5t16.5 96.5l21 270h320v-197h142q39 0 72 -8t56.5 -26.5t37 -48t13.5 -71.5t-14.5 -71t-39.5 -47t-58 -26.5t-70 -8.5h-225v434z
M623 74q20 0 38 3.5t31 12.5t20.5 24.5t7.5 39.5q0 46 -26 64t-68 18h-142v-162h139z" />
    <glyph glyph-name="uni045A" unicode="&#x45a;" horiz-adv-x="784" 
d="M748.5 82q-14.5 -29 -39.5 -47t-58 -26.5t-70 -8.5h-212v236h-223v-236h-86v492l86 24v-209h223v185l86 24v-209h129q39 0 72 -8t56.5 -26.5t37 -48t13.5 -71.5t-14.5 -71zM652 218q-26 18 -68 18h-129v-162h126q20 0 38 3.5t31 12.5t20.5 24.5t7.5 39.5q0 46 -26 64z
" />
    <glyph glyph-name="uni045B" unicode="&#x45b;" horiz-adv-x="514" 
d="M365 489.5q34 -14.5 57.5 -40t36.5 -60t13 -74.5v-315h-86v326q0 47 -26 75.5t-74 28.5q-61 0 -94.5 -30.5t-45.5 -76.5v-323h-86v683l86 24v-265q31 38 68.5 50t74.5 12q42 0 76 -14.5zM278 565h-295v56h312z" />
    <glyph glyph-name="uni045C" unicode="&#x45c;" horiz-adv-x="427" 
d="M145 288h42l142 216h88l-158 -245l112 -171q9 -14 26.5 -20t36.5 -6v-62q-24 -12 -42 -12q-27 0 -47.5 18.5t-37.5 44.5l-121 180h-41v-231h-86v492l86 24v-228zM232 707h72v-25l-67 -97h-57z" />
    <glyph glyph-name="uni045E" unicode="&#x45e;" horiz-adv-x="542" 
d="M263.5 -178.5q-28.5 -27.5 -70.5 -27.5q-14 0 -29.5 2.5t-38.5 9.5v63h42q23 0 39 6.5t24 29.5l34 98q-29 7 -49.5 27t-31.5 48l-158 414l83 24l156 -408q4 -10 9.5 -16t16.5 -6h4l155 430l83 -24l-223 -599q-17 -44 -45.5 -71.5zM228 593q-25 8 -44 23.5t-30 38.5
t-11 52h51q0 -17 7.5 -29t20 -20t28 -12t31.5 -4q15 0 30.5 3.5t28 11.5t20.5 20.5t8 29.5h51q0 -30 -11.5 -52.5t-30.5 -38t-44 -23.5t-52 -8q-28 0 -53 8z" />
    <glyph glyph-name="uni045F" unicode="&#x45f;" horiz-adv-x="498" 
d="M131 504v-434h236v434h85v-504h-168v-92h-70v92h-169v504h86z" />
    <glyph glyph-name="uni0490" unicode="&#x490;" horiz-adv-x="420" 
d="M31 695h305v140h83v-221h-298v-614h-90v695z" />
    <glyph glyph-name="uni0491" unicode="&#x491;" horiz-adv-x="329" 
d="M20 504h234v191h71v-261h-219v-434h-86v504z" />
    <glyph glyph-name="endash" unicode="&#x2013;" horiz-adv-x="673" 
d="M608 315q3 -11 4 -18.5t1 -15.5t-1 -16t-4 -19h-544q-3 11 -4 19t-1 16t1 15.5t4 18.5h544z" />
    <glyph glyph-name="emdash" unicode="&#x2014;" horiz-adv-x="1110" 
d="M1045 315q2 -11 3.5 -18.5t1.5 -15.5t-1.5 -16t-3.5 -19h-980q-3 11 -4 19t-1 16t1 15.5t4 18.5h980z" />
    <glyph glyph-name="quoteleft" unicode="&#x2018;" horiz-adv-x="176" 
d="M30.5 523q-7.5 21 -7.5 47q0 45 27 82.5t67 54.5l21 -33q-24 -8 -39.5 -29.5t-15.5 -46.5q0 -12 4 -23q20 0 34 -14t14 -34t-14 -34.5t-36 -14.5q-19 0 -34 13q-13 11 -20.5 32z" />
    <glyph glyph-name="quoteright" unicode="&#x2019;" horiz-adv-x="179" 
d="M148.5 662q7.5 -21 7.5 -47q0 -45 -27 -82.5t-67 -54.5l-21 33q24 8 39.5 29.5t15.5 46.5q0 12 -4 23q-20 0 -34 14t-14 34t14 34.5t36 14.5q19 0 34 -13q13 -11 20.5 -32z" />
    <glyph glyph-name="quotedblleft" unicode="&#x201c;" horiz-adv-x="377" 
d="M50.5 523q-7.5 21 -7.5 47q0 45 27 82.5t67 54.5l21 -33q-24 -8 -39.5 -29.5t-15.5 -46.5q0 -12 4 -23q20 0 34 -14t14 -34t-14 -34.5t-36 -14.5q-19 0 -34 13q-13 11 -20.5 32zM218.5 523q-7.5 21 -7.5 47q0 45 27 82.5t67 54.5l21 -33q-24 -8 -39.5 -29.5t-15.5 -46.5
q0 -12 4 -23q20 0 34 -14t14 -34t-14 -34.5t-36 -14.5q-19 0 -34 13q-13 11 -20.5 32z" />
    <glyph glyph-name="quotedblright" unicode="&#x201d;" horiz-adv-x="376" 
d="M325.5 662q7.5 -21 7.5 -47q0 -45 -27 -82.5t-67 -54.5l-21 33q24 8 39.5 29.5t15.5 46.5q0 12 -4 23q-20 0 -34 14t-14 34t14 34.5t36 14.5q19 0 34 -13q13 -11 20.5 -32zM157.5 662q7.5 -21 7.5 -47q0 -45 -27 -82.5t-67 -54.5l-21 33q24 8 39.5 29.5t15.5 46.5
q0 12 -4 23q-20 0 -34 14t-14 34t14 34.5t36 14.5q19 0 34 -13q13 -11 20.5 -32z" />
    <glyph glyph-name="quotedblbase" unicode="&#x201e;" horiz-adv-x="376" 
d="M325.5 40q7.5 -21 7.5 -47q0 -45 -27 -82.5t-67 -54.5l-21 33q24 8 39.5 29.5t15.5 46.5q0 12 -4 23q-20 0 -34 14t-14 34t14 34.5t36 14.5q19 0 34 -13q13 -11 20.5 -32zM157.5 40q7.5 -21 7.5 -47q0 -45 -27 -82.5t-67 -54.5l-21 33q24 8 39.5 29.5t15.5 46.5
q0 12 -4 23q-20 0 -34 14t-14 34t14 34.5t36 14.5q19 0 34 -13q13 -11 20.5 -32z" />
    <glyph glyph-name="dagger" unicode="&#x2020;" horiz-adv-x="469" 
d="M0 425v77h191v193h86v-193h192v-77h-192l-20 -619h-45l-21 619h-191z" />
    <glyph glyph-name="daggerdbl" unicode="&#x2021;" horiz-adv-x="471" 
d="M1 425v77h191v193h86v-193h192v-77h-192l-12 -365h204v-53h-206l-7 -201h-44l-7 201h-205v53h203l-12 365h-191z" />
    <glyph glyph-name="bullet" unicode="&#x2022;" horiz-adv-x="317" 
d="M206.5 468.5q22.5 -9.5 39 -26t26 -38.5t9.5 -47t-9.5 -47t-26 -38.5t-39 -26t-47.5 -9.5q-26 0 -48 9.5t-39 26t-26.5 38.5t-9.5 47t9.5 47t26.5 38.5t39 26t48 9.5q25 0 47.5 -9.5z" />
    <glyph glyph-name="ellipsis" unicode="&#x2026;" horiz-adv-x="644" 
d="M139.5 70.5q14.5 -14.5 14.5 -34.5t-14.5 -34t-34.5 -14q-21 0 -35.5 14t-14.5 34t14.5 34.5t35.5 14.5q20 0 34.5 -14.5zM356.5 70.5q14.5 -14.5 14.5 -34.5t-14.5 -34t-34.5 -14q-21 0 -35.5 14t-14.5 34t14.5 34.5t35.5 14.5q20 0 34.5 -14.5zM573.5 70.5
q14.5 -14.5 14.5 -34.5t-14.5 -34t-34.5 -14q-21 0 -35.5 14t-14.5 34t14.5 34.5t35.5 14.5q20 0 34.5 -14.5z" />
    <glyph glyph-name="perthousand" unicode="&#x2030;" horiz-adv-x="992" 
d="M109 356.5q-26 16.5 -41.5 43t-22 59.5t-6.5 66q0 32 6.5 64.5t21.5 58.5t41 42.5t65 16.5q37 0 63 -16.5t42.5 -42.5t24 -58.5t7.5 -63.5q0 -32 -7 -65t-23 -60t-42 -44t-65 -17q-38 0 -64 16.5zM776 4.5q-26 16.5 -41.5 42.5t-22 59.5t-6.5 66.5q0 32 6.5 64.5
t21.5 58.5t41 42.5t65 16.5q38 0 64.5 -16.5t42.5 -42.5t23 -58.5t7 -64.5t-7 -64.5t-23 -59.5t-42 -44t-65 -17q-38 0 -64 16.5zM910 209.5q-3 20.5 -11.5 39t-22.5 31t-35 12.5q-22 0 -36 -12.5t-22 -30.5t-11 -39t-3 -37q0 -17 3 -38.5t11 -40t22 -31t37 -12.5
q21 0 34.5 13t21.5 32t11.5 40t3.5 37t-3 36.5zM455 4.5q-26 16.5 -41.5 42.5t-22 59.5t-6.5 66.5q0 32 6.5 64.5t21.5 58.5t41 42.5t65 16.5q38 0 64.5 -16.5t42.5 -42.5t23 -58.5t7 -64.5q0 -31 -7 -64t-23 -60t-42 -44t-65 -17q-38 0 -64 16.5zM589 209.5
q-3 20.5 -11.5 39t-22.5 31t-35 12.5q-22 0 -36 -12.5t-22 -30.5t-11 -39t-3 -37q0 -17 3 -38.5t11 -40t22 -31t37 -12.5q21 0 34.5 13t21.5 32t11.5 40t3.5 37t-3 36.5zM243 562.5q-3 20.5 -11.5 38.5t-22 30.5t-34.5 12.5q-23 0 -37 -12.5t-22 -30.5t-11 -38.5t-3 -37.5
t3 -38t11 -40t22 -31.5t37 -12.5q21 0 34.5 13t21.5 32t11.5 40.5t3.5 37.5t-3 36.5zM449 707l-272 -719h71l271 719h-70z" />
    <glyph glyph-name="guilsinglleft" unicode="&#x2039;" horiz-adv-x="260" 
d="M160.5 358.5q-29.5 -55.5 -62.5 -99.5q33 -44 62.5 -99.5t55.5 -117.5h-61q-29 57 -69 111t-86 106q46 52 86 106t69 112h61q-26 -63 -55.5 -118.5z" />
    <glyph glyph-name="guilsinglright" unicode="&#x203a;" horiz-adv-x="260" 
d="M174 365q40 -54 86 -106q-46 -52 -86 -106t-69 -111h-61q26 62 55.5 117.5t62.5 99.5q-33 44 -62.5 99.5t-55.5 118.5h61q29 -58 69 -112z" />
    <glyph glyph-name="fraction" unicode="&#x2044;" horiz-adv-x="575" 
d="M0 -12l507 719h68l-505 -719h-70z" />
    <glyph glyph-name="uni2074" unicode="&#x2074;" horiz-adv-x="275" 
d="M157 432h-155v45l153 218h51v-217h45l-15 -46h-30v-85h-49v85zM157 614l-97 -136h97v136z" />
    <glyph glyph-name="uni2075" horiz-adv-x="287" 
d="M104.5 395.5q14.5 -9.5 40.5 -9.5q18 0 29.5 6.5t18.5 17.5t10 25t3 29q0 32 -14 55t-47 23q-18 0 -30 -6t-23 -20h-46l13 179h174l-14 -46h-117l-5 -70q22 9 48 9q57 0 82 -35t25 -89q0 -52 -26.5 -88t-80.5 -36q-78 0 -109 70l43 19q11 -24 25.5 -33.5z" />
    <glyph glyph-name="uni2077" horiz-adv-x="251" 
d="M244 695v-34q0 -23 -16 -39q-55 -55 -83.5 -126t-28.5 -149h-46q0 40 8 81t23 80t38 75t53 66h-169v46h221z" />
    <glyph glyph-name="uni2078" horiz-adv-x="282" 
d="M184.5 400.5q15.5 14.5 15.5 43.5q0 20 -9.5 37t-31.5 27l-25 11q-21 -8 -37 -29.5t-16 -45.5q0 -30 15.5 -44t44.5 -14q28 0 43.5 14.5zM63.5 368q-28.5 28 -28.5 76q0 34 19.5 56t45.5 34q-25 11 -37.5 32.5t-12.5 49.5q0 37 26.5 61.5t64.5 24.5t64.5 -24.5
t26.5 -61.5q0 -27 -14 -43.5t-35 -31.5q29 -14 46 -40t17 -57q0 -48 -29 -76t-77 -28t-76.5 28zM172 645.5q-14 9.5 -31 9.5t-31 -10t-14 -29q0 -20 7 -30.5t23 -18.5l24 -11q12 6 24 21t12 40q0 19 -14 28.5z" />
    <glyph glyph-name="Euro" unicode="&#x20ac;" horiz-adv-x="598" 
d="M181 328q0 -8 1 -18h247l-13 -62h-230q6 -50 27 -90.5t70 -64.5q25 -12 52.5 -17.5t55.5 -5.5q66 2 114 35l47 -70q-35 -24 -75.5 -35t-85.5 -12q-38 0 -74.5 7.5t-70.5 24.5q-41 21 -68 45.5t-44.5 53t-26 61t-12.5 68.5h-78l19 62h55v62h-74l19 62h58q3 38 12.5 71.5
t27 62.5t45 53t67.5 43q34 16 70.5 23.5t74.5 7.5q91 0 161 -46l-47 -70q-50 35 -114 35q-28 0 -55.5 -5t-52.5 -18q-50 -26 -71 -66.5t-27 -90.5h269l-12 -62h-261v-26v0v-18z" />
    <glyph glyph-name="uni2116" unicode="&#x2116;" horiz-adv-x="1057" 
d="M1010.5 441q7.5 -33 7.5 -70q0 -38 -7.5 -71.5t-26.5 -59.5q-20 -28 -51.5 -44t-79.5 -16t-79.5 15.5t-51.5 43.5q-19 26 -26.5 59.5t-7.5 72.5q0 38 7.5 71t26.5 59q20 27 52 42.5t79 15.5t79 -15.5t52 -43.5q19 -26 26.5 -59zM949 422.5q-5 23.5 -17 40.5
q-11 15 -30.5 24t-48.5 9t-48.5 -8.5t-30.5 -24.5q-12 -17 -17.5 -40.5t-5.5 -51.5q0 -29 5 -54t17 -42q11 -15 30.5 -23.5t49.5 -8.5t49 9t30 24q12 17 17 41.5t5 53.5q0 28 -5 51.5zM1010 126q6 -21 6 -35q0 -15 -6 -34h-314q-6 19 -6 34q0 14 6 35h314zM60 695h115
l347 -558v558h90v-695h-110l-352 569v-569h-90v695z" />
    <glyph glyph-name="trademark" unicode="&#x2122;" horiz-adv-x="838" 
d="M214 306h-54v340h-125v49h306l-19 -49h-108v-340zM394 695h84l107 -280l108 280h84v-389h-54v325l-108 -284h-60l-107 284v-325h-54v389z" />
    <glyph glyph-name="oneeighth" horiz-adv-x="651" 
d="M38 -12l507 719h68l-505 -719h-70zM549.5 56.5q15.5 14.5 15.5 43.5q0 20 -9.5 37t-31.5 27l-25 11q-21 -8 -37 -29.5t-16 -45.5q0 -30 15.5 -44t44.5 -14q28 0 43.5 14.5zM428.5 24q-28.5 28 -28.5 76q0 34 19.5 56t45.5 34q-25 11 -37.5 32.5t-12.5 49.5
q0 37 26.5 61.5t64.5 24.5t64.5 -24.5t26.5 -61.5q0 -27 -14 -43.5t-35 -31.5q29 -14 46 -40t17 -57q0 -48 -29 -76t-77 -28t-76.5 28zM537 301.5q-14 9.5 -31 9.5t-31 -10t-14 -29q0 -20 7 -30.5t23 -18.5l24 -11q12 6 24 21t12 40q0 19 -14 28.5zM125 393v234l-43 -41
l-33 33l80 76h47v-302h49v-46h-152v46h52z" />
    <glyph glyph-name="threeeighths" horiz-adv-x="653" 
d="M39 -12l507 719h68l-505 -719h-70zM553.5 56.5q15.5 14.5 15.5 43.5q0 20 -9.5 37t-31.5 27l-25 11q-21 -8 -37 -29.5t-16 -45.5q0 -30 15.5 -44t44.5 -14q28 0 43.5 14.5zM432.5 24q-28.5 28 -28.5 76q0 34 19.5 56t45.5 34q-25 11 -37.5 32.5t-12.5 49.5
q0 37 26.5 61.5t64.5 24.5t64.5 -24.5t26.5 -61.5q0 -27 -14 -43.5t-35 -31.5q29 -14 46 -40t17 -57q0 -48 -29 -76t-77 -28t-76.5 28zM541 301.5q-14 9.5 -31 9.5t-31 -10t-14 -29q0 -20 7 -30.5t23 -18.5l24 -11q12 6 24 21t12 40q0 19 -14 28.5zM272 695v-39
q0 -11 -3.5 -19.5t-9.5 -16.5l-58 -67q87 -15 87 -106q0 -51 -28.5 -79t-80.5 -28q-79 0 -110 69l42 19q14 -25 29.5 -33.5t38.5 -8.5q28 0 45.5 16.5t17.5 45.5q0 34 -19.5 51t-48.5 17h-34v35l83 98h-143v46h192z" />
    <glyph glyph-name="fiveeighths" horiz-adv-x="651" 
d="M62 -12l507 719h68l-505 -719h-70zM551.5 56.5q15.5 14.5 15.5 43.5q0 20 -9.5 37t-31.5 27l-25 11q-21 -8 -37 -29.5t-16 -45.5q0 -30 15.5 -44t44.5 -14q28 0 43.5 14.5zM430.5 24q-28.5 28 -28.5 76q0 34 19.5 56t45.5 34q-25 11 -37.5 32.5t-12.5 49.5
q0 37 26.5 61.5t64.5 24.5t64.5 -24.5t26.5 -61.5q0 -27 -14 -43.5t-35 -31.5q29 -14 46 -40t17 -57q0 -48 -29 -76t-77 -28t-76.5 28zM539 301.5q-14 9.5 -31 9.5t-31 -10t-14 -29q0 -20 7 -30.5t23 -18.5l24 -11q12 6 24 21t12 40q0 19 -14 28.5zM136.5 395.5
q14.5 -9.5 40.5 -9.5q18 0 29.5 6.5t18.5 17.5t10 25t3 29q0 32 -14 55t-47 23q-18 0 -30 -6t-23 -20h-46l13 179h174l-14 -46h-117l-5 -70q22 9 48 9q57 0 82 -35t25 -89q0 -52 -26.5 -88t-80.5 -36q-78 0 -109 70l43 19q11 -24 25.5 -33.5z" />
    <glyph glyph-name="seveneighths" horiz-adv-x="649" 
d="M35 -12l507 719h68l-505 -719h-70zM549.5 56.5q15.5 14.5 15.5 43.5q0 20 -9.5 37t-31.5 27l-25 11q-21 -8 -37 -29.5t-16 -45.5q0 -30 15.5 -44t44.5 -14q28 0 43.5 14.5zM428.5 24q-28.5 28 -28.5 76q0 34 19.5 56t45.5 34q-25 11 -37.5 32.5t-12.5 49.5
q0 37 26.5 61.5t64.5 24.5t64.5 -24.5t26.5 -61.5q0 -27 -14 -43.5t-35 -31.5q29 -14 46 -40t17 -57q0 -48 -29 -76t-77 -28t-76.5 28zM537 301.5q-14 9.5 -31 9.5t-31 -10t-14 -29q0 -20 7 -30.5t23 -18.5l24 -11q12 6 24 21t12 40q0 19 -14 28.5zM293 695v-34
q0 -23 -16 -39q-55 -55 -83.5 -126t-28.5 -149h-46q0 40 8 81t23 80t38 75t53 66h-169v46h221z" />
    <glyph glyph-name="arrowup" unicode="&#x2191;" horiz-adv-x="553" 
d="M53 384l-50 50l274 273l273 -273l-55 -50l-178 172v-507h-80v507z" />
    <glyph glyph-name="arrowdown" unicode="&#x2193;" horiz-adv-x="554" 
d="M317 707v-507l178 172l55 -50l-273 -273l-274 273l50 50l184 -172v507h80z" />
    <glyph glyph-name="minus" unicode="&#x2212;" horiz-adv-x="605" 
d="M539 353q3 -12 4.5 -21t1.5 -18q0 -17 -6 -39h-473q-7 21 -7 39q0 17 7 39h473z" />
    </font>
</defs>
</svg>
